<?xml version="1.0" encoding="UTF-8"?><svg xmlns="http://www.w3.org/2000/svg" viewBox="0 0 313.06 350.66"><defs><style>.d{fill:#9ca3af;fill-rule:evenodd;}</style></defs><g id="a"/><g id="b"><g id="c"><path class="d" d="M0,0V350.66H313.06V0H0ZM180.21,85.4c5.41-.22,10.23-3.24,10.23-3.24,0,0-5.77,4.5-7.24,8.9-1.47,4.39-1.74,10.93-1.74,10.93,0,0-4.05-6.67-6.86-11.32-2.8-4.65-5.8-7.63-5.8-7.63,0,0,6,2.59,11.41,2.37Zm-87.26,59.74c-.41,2.2-1.27,.65-2.65,4.67-1.15,3.35-2.19,8.08-3.27,10.2-1.29,2.52-2.89-.61-4.82,1.33-1.39,1.39-2.83,5.33-4.22,6.03-3.62,1.83-6.81,1.1-8.51,4.34-1.21,2.3-.25,6.8-.74,8.22-1.34,3.91-2.36,2.67-3.68,7.38-.45,1.59-.22,5.41-1.43,7.64-.81,1.49-3.19,1.3-3.79,3.63-.63,2.45-.66,4.99-1.53,6.68-1.3,2.55-3.25-.45-4.61,1.65-3.34,5.13-7.96,11.5-7.96,11.5,0,0-1.01-7.79,1.7-12.15,1.82-2.93,5.51-4.94,7.17-8.48,.89-1.91-4.03-.15-3.04-2.24,1.6-3.39,9.15-8.8,10.48-11.53,1.88-3.83,.26-3.74-1.37-5.16-2.01-1.76,4.85-6.52,6.53-9.14,5.51-8.63,6.03-3.61,10.47-8.44,1.33-1.45-2.62-1.35-1.11-2.84,1.63-1.62,7.84-4.53,9.08-6.07,1.71-2.11-2-.94-.96-2.96,4.4-8.61,6.98-12.97,6.98-12.97,0,0,1.65,6.76,1.28,8.72Zm.04-14.35c-6.8-13.27,8.09-77.05,24.68-87.04,16.32-9.84,45.38,29.56,48.14,38.23,.44,1.39,.75,10.04,.75,10.04l-7.94-12.94s-7.21-12.44-16.08-21.45c-6.9-7.02-15.03-10.88-20.16-11.39-6.38-.63-16.82,21.13-17.35,34.96-.57,14.73,4.58,35.4,7.87,46.98-4.02,1.17-11.06-1.03-11.06-1.03,0,0-8.52,4.26-8.84,3.64Zm58.72-20.15c-.18,1.94-2.75-2-2.94-.77-.3,1.97-2.03,4.64-2.03,4.64,0,0-6.37-4.59-8.33-3.76-1.9,.79-8.84,7.58-8.84,7.58,0,0-3.22-2.75-4.01-6.05-.42-1.76,1.57-3.7,1.29-5.39-.2-1.17-2.99-3.26-3.64-4.88-.73-1.82,2.53-2.97,2.55-4.85,.01-1.13-3.55-2.82-3.61-3.55-.18-2.29,2.11-2.93,1.89-5.29-.08-.81-2.63-4.77-2.69-5.56-.26-3.32,1.55-2.66,1.3-5.84-.13-1.75-2.03-5.31-2.1-6.91-.14-2.85,3.34-1.34,3.59-3.2,.1-.73-3.63-5.3-3.66-6.15-.03-.94,2.38,.76,2.55-.02,.17-.78-1.65-2.17-1.88-3.1-.23-.94-.09-1.95,1.86-1.72,1.95,.23,4.73,1.72,5.95,2.63s-2.11-.16-1.09,.99c1.02,1.14,4.39,2.85,5.33,4.08,.95,1.23-2.37,.09-1.54,.83,1.82,1.62,7.39,5.12,8.87,7.08,1.49,1.96-3.87-.43-2.92,.76,1.3,1.64,7.09,6.01,8.61,8.32,1.52,2.32-3.26-.8-2.52,.94,.43,1,6.3,6.26,7.27,8.26,.97,2.01-3.67-3.11-3.4-.24,.28,2.87,4.03,8.54,4.51,11.7,.48,3.16-2.57-1.8-2.61,.94,0,.8,2.41,6.58,2.24,8.52Zm-25.73,153.18c-.08,3.73,.27,2.73,.21,5.44-.06,2.71,.39,4.84-.44,5.38-.82,.54-1.85-1.21-1.85-1.21,0,0-.98,3.43-1.96,5.09-.99,1.66-1.59-.62-1.59-.62l-7.09,7.83s5.41-9.76,8.35-19.54c2.94-9.79,3.42-19.6,3.42-19.6,0,0,.25,4.54,.79,10.71,.11,1.31,2.08,5.01,2.12,6.64,.04,1.63-1.94-.98-1.96-.12Zm12.96-25.94c-1.25-.14-3.86,1.76-5.79,.85-1.49-.71-1.61-3.11-2.81-3.41-3.33-.84-3.18,1.58-6.37,.39-4.54-1.7-5.17-4.7-9.54-6.58s-3.93,2.78-7.91-.93c-1.7-1.58-2.88-6.32-4.17-8.58-.76-1.34-3.5-1.02-3.81-2.51-1.06-5.08,6.74-14.47,8.4-18.33,1.6-3.71-1.83-2.84-.11-7.68,3.52-9.88,7.93-13.6,7.93-13.6,0,0-3.36,8.26-4.63,12.85-1.28,4.59,1.11,2.36-.57,9.12-.91,3.66,1.49,8.57,.83,11.3-.3,1.24-2.96-2.15-4.4-.95-1.25,1.05-3.05,2.05-2.65,4.8,.4,2.75,3.75,4.34,4.26,6.2,.7,2.55,.52,3.12,2.83,4.27,3.2,1.6,9.77,2.62,9.77,2.62,0,0,.51,3.85,3.91,4.36,2.31,.35,5.68-2.28,7.46-1.7,3,.98,1.64,2.46,3.63,3.59,6.1,3.45,10.25,2.19,10.25,2.19,0,0-2.25,2.24-6.51,1.76Zm25.78-68.2c-9.81,.85-19.27,9.28-19.27,9.28,0,0,17.4-15.4,30.81-17.13,13.41-1.73,22.83,10.2,22.83,10.2,0,0-9.22,3.28-17.81,2.69s-6.76-5.88-16.57-5.04Zm52.14-76.13c1.2-2.62,5.86-6.6,6.81-9.01,.95-2.41-4.34,.86-3-.64,1.34-1.5,7.73-4.58,8.35-5.35,1.08-1.33-3.84,.18-1.95-1.45,1.9-1.63,7.99-3.97,9.53-5.07,1.12-.8-4.12-.06-2.34-1.39,1.78-1.33,7.46-2.98,9.45-3.93,.9-.43-2.26-.27-1.13-1.1,1.12-.83,4.46-1.47,5.63-2.2,1.17-.74-1.97-.65-.7-1.13,1.28-.48,4.06-1.08,5.81-.8,1.75,.29,1.61,1.2,1.18,1.95s-2.35,1.5-2.4,2.22c-.05,.72,2.47-.16,2.21,.65-.24,.73-4.6,3.77-4.7,4.42-.24,1.67,3.14,1.23,2.32,3.66-.46,1.36-2.99,3.98-3.54,5.46-1,2.69,.72,2.57-.32,5.38-.25,.67-3.44,3.46-3.71,4.14-.79,1.99,1.04,3.11,.32,5.05-.23,.62-3.74,1.19-4.01,2.18-.45,1.64,2.08,3.44,1,4.84-.97,1.25-3.91,2.36-4.37,3.32-.66,1.39,.58,3.57-.22,4.99-1.5,2.66-4.97,4.24-4.97,4.24,0,0-4.33-7.6-5.77-8.76-1.5-1.2-8.15,1.19-8.15,1.19,0,0-.83-2.74-.6-4.53,.14-1.11-3.06,1.66-2.73-.06,.33-1.72,3.86-6.12,4.05-6.82,.65-2.38-3.22,1.16-2.02-1.46Zm8.54,106.77c6.87,7.57,10.01,14.98,8.31,13.9s-4-5.64-11.02-13.41c-7.02-7.76-16.22-19.18-16.22-19.18,0,0,12.07,11.11,18.94,18.68Zm-15.83-54.55s-4.39-3.6-9.23-7.32c-4.83-3.72-10.1-7.55-10.1-7.55,0,0,7.21,1.63,12.19,.49,4.99-1.14,7.76-5.05,7.76-5.05,0,0-.89,4.4-1.6,8.99s.98,10.43,.98,10.43Zm-17.23,119.29c-2.82,6.43-.41,9.53-1.83,12.73-1.43,3.2-2.52-3.22-3.87,.06-.68,1.64-2.25,13.43-2.87,15.07-.63,1.7-2.1-4.57-2.67-3.02-3.98,10.85-3.78,22.91-3.78,22.91,0,0-1.92-6.03-4.59-12.81-.8-2.04-3.39-.91-3.85-3.78-.39-2.46,1.53-9.48,1.37-12.21-.14-2.21-3.62,2.9-3.16-.27,.64-4.45,3.62-13.92,3.92-17.62,.1-1.21-3.45,3.36-3.24,2.23,.73-3.81,4.49-9.46,4.94-12.38,.18-1.14-3.97,2.54-3.77,1.53,.79-4.02,4.31-10.62,4.31-10.62,0,0,6.88,4.02,14.02,5.32,7.14,1.3,14.54-.12,14.54-.12,0,0-6.64,6.55-9.47,12.98Zm71.08-41.48c-2.79,3.34-2.14,5.48-5.29,9.94-.66,.94-1.36,1.3-2.08,1.3-.44,.49-.89,.94-1.36,1.32-1.74,1.37-3.86,2.27-6.12,2.93,.17,1.14,.19,3.06-.38,4.64-.26,.72-.53,.09-1.08,.55-.39,.33-.89,2.95-1.39,2.22-.51-.73-.93,1.04-1.48,1.55-.57,.52-.48-.51-1.22-.34-.45,.1-1.1,.88-1.9,1.05-.67,.14-1.39-.31-1.39-.31,0,0-4.2,1.53-5.19,1.55-.56,.01,1.48-1.42,.81-1.45-1.35-.08-2.3-.79-4.27,.03l-11.7,17.82-9.91,30.92s2.06-11.5,1.74-19.02c-.04-1.01-2.85,4.66-2.31,2.24,.63-2.81,2.15-9.33,2.11-10.46-.07-2.34-2.63,1.92-2.78,.13-.33-3.84-.29-5.78,2.41-9.47,2.7-3.69,4.81-1.94,8.4-5.29,.75-.7-2.98-2.65-2.17-3.26,1.39-1.04,3.05-2.03,4.05-2.56,2.33-1.24,2.33-1.52,2.33-1.52,0,0-.54-.25-1.4-.17-.86,.07,1.33,1.13-1.43,1.04-1.74-.06-1.38-.83-3.44-.74-1.29,.06-4.09,.79-5.3,.61-2.28-.34-4-1.87-6.32-2.08-5.58-.51-9.98-1.39-13.84-1.85-1.12-.14-3.85,.36-5.14-.02-1.3-.38-1.15-1.63-2.4-1.82-1.88-.29-3.65,.12-4.43,.34-2.22,.64-2.94-1.34-4.93-1.88-3.05-.82,.35-.93,.24-1.48-.16-.81,2.06,.23,5.82,.31,3.77,.08,6.3,.86,9.4,1.41,1.53,.27,7.17,1.32,14.14,1.71,3.6,.21,5.76,1.11,9.76,1.29,7.82,.36,17.58,.09,23.08,1.33,2.53,.57,4.61-.44,6.66-2.3,.77-.7,1.85-2.03,2.31-2.88,.3-.55,.52-.92,.77-1.35-2.72,.65-5.55,1.04-8.12,1.47-6.2,1.06-16.92,.55-25.92-3.49-13.13-5.89-24.07-16.39-24.07-16.39,0,0,14.07,10.43,25.2,14.57,11.13,4.15,11.83,2.48,20.57,1.89,8.74-.59,8.98,.82,15.34-3.65,.74-.52,1.38-1.1,1.95-1.71-.62-.55-1.24-1.11-1.89-1.62-2.39-1.84-.11-2.68-.11-4.61,0-3.1-7.44,1.84-5.76-8.56,.29-1.82,6.98-6.43,12.36-6.55-.34-.42-.68-.81-1.01-1.24-3.67-4.74-2.25-2.38-7.6-9.6-5.35-7.22-8.47-10.87-13.8-19.27-5.33-8.4-4.82-8.08-6.22-14.83-1.4-6.75,1.25-12.72,1.25-12.72,0,0-.26,4.16,.28,8.78,1.63-.91,4.61,.79,5.4,1.1,1.19,.46,5.3,5.38,5.08,7.72-.05,.53-2.65,.76-5.32,1.07-.87,.1-1.74,.2-2.58,.27h0c1.85,5.25,6.75,10.59,8.96,15.17,2.98,6.16,5.47,8.02,7.12,10.01,1.84,2.22,2.82,4.37,6.05,8.37,2.25,2.8,3.94,4.4,5.38,5.71,1.35,.63,2.41,1.76,3.18,3.12,.6,.77,1.02,1.59,1.23,2.76,.05,.3,.07,.59,.09,.89,.47,2.29,.33,4.47-.42,5.37Zm-17.21-108c-2.89,2.98-8.2,7.29-8.2,7.29,0,0,10.83-21.08,12.78-26.42,3.48-9.54,13.78-41.18,10.19-42.96-5.95-2.95-38.02,11.64-44.65,26.05-7.42,16.11-4.76,25.37-4.76,25.37,0,0-5.58-5.8-10.37-11.08-2.98-3.27-13.36-1.31-13.36-1.31,0,0-.21-3.57,4.55-8.72,10.49-11.36,52.92-33.61,68.33-33.74,1.6-.01,2.8,.23,3.53,.75,10.76,7.8-14.87,61.53-18.02,64.78Z"/></g></g></svg>