<?xml version="1.0" encoding="UTF-8"?><svg xmlns="http://www.w3.org/2000/svg" viewBox="0 0 519.48 528.47"><defs><style>.e,.f{fill:#f04f23;}.f{fill-rule:evenodd;isolation:isolate;opacity:.99;}</style></defs><g id="a"/><g id="b"><g id="c"><g><g id="d"><path class="f" d="M217.8,11.85c-13.83,8.33-26.23,61.47-20.57,72.53,.27,.52,7.37-3.03,7.37-3.03,0,0,5.87,1.84,9.22,.86-2.74-9.65-7.03-26.88-6.56-39.15,.44-11.52,9.14-29.66,14.46-29.13,4.28,.42,11.05,3.64,16.8,9.49,7.39,7.51,13.4,17.88,13.4,17.88l6.62,10.78s-.25-7.21-.62-8.37c-2.3-7.22-26.51-40.05-40.11-31.85Zm119.18,5.25c-12.85,.11-48.2,18.65-56.94,28.11-3.96,4.29-3.79,7.27-3.79,7.27,0,0,8.66-1.63,11.14,1.09,4,4.4,8.64,9.23,8.64,9.23,0,0-2.21-7.72,3.97-21.14,5.53-12,32.25-24.16,37.21-21.71,2.99,1.48-5.59,27.86-8.49,35.8-1.62,4.45-10.65,22.02-10.65,22.02,0,0,4.43-3.59,6.83-6.07,2.63-2.71,23.99-47.48,15.02-53.98-.61-.44-1.61-.64-2.94-.63Zm-35.95,43.21c.12-.93-2.55,1.38-2.28-.05,.27-1.43,3.22-5.1,3.38-5.68,.54-1.98-2.68,.96-1.69-1.22,1-2.18,4.88-5.5,5.68-7.51,.79-2.01-3.61,.72-2.5-.53,1.11-1.25,6.44-3.82,6.95-4.45,.9-1.11-3.2,.15-1.62-1.2,1.58-1.36,6.66-3.31,7.94-4.22,.93-.66-3.43-.05-1.95-1.16,1.48-1.11,6.22-2.48,7.87-3.27,.75-.36-1.88-.23-.94-.92,.94-.69,3.72-1.22,4.69-1.84,.98-.61-1.64-.54-.58-.94,1.06-.4,3.38-.9,4.84-.66,1.46,.24,1.34,1,.99,1.63-.36,.63-1.96,1.25-2,1.85s2.06-.13,1.84,.54c-.2,.61-3.84,3.14-3.91,3.68-.2,1.39,2.62,1.02,1.93,3.05-.39,1.13-2.49,3.31-2.95,4.55-.84,2.24,.6,2.14-.27,4.48-.21,.55-2.87,2.89-3.09,3.45-.66,1.66,.87,2.59,.26,4.21-.2,.52-3.11,.99-3.34,1.82-.38,1.36,1.73,2.87,.83,4.03-.81,1.04-3.26,1.97-3.64,2.77-.55,1.16,.48,2.97-.18,4.15-1.25,2.21-4.15,3.53-4.15,3.53,0,0-3.61-6.34-4.81-7.3-1.25-1-6.79,.99-6.79,.99,0,0-.69-2.28-.5-3.77Zm-57.32,6.64c.16-1.02,2.3,2.26,2.45,.64,.15-1.61-1.87-6.43-1.86-7.1,.03-2.28,2.57,1.85,2.17-.78-.4-2.63-3.52-7.36-3.76-9.75-.23-2.39,3.64,1.87,2.83,.2-.81-1.67-5.7-6.05-6.05-6.88-.62-1.46,3.37,1.14,2.1-.79-1.27-1.93-6.09-5.57-7.17-6.94-.79-.99,3.67,1,2.43-.64-1.24-1.63-5.88-4.56-7.39-5.9-.69-.61,2.08,.33,1.29-.69-.79-1.02-3.59-2.44-4.45-3.4-.85-.95,1.92-.07,.91-.82-1.01-.75-3.33-2-4.96-2.19-1.63-.19-1.74,.65-1.55,1.43,.19,.78,1.71,1.94,1.57,2.59-.14,.65-2.15-.77-2.13,.01,.02,.71,3.13,4.52,3.05,5.13-.21,1.55-3.11,.29-2.99,2.66,.06,1.33,1.64,4.3,1.75,5.75,.2,2.65-1.3,2.1-1.09,4.86,.05,.66,2.18,3.96,2.24,4.63,.19,1.97-1.72,2.5-1.57,4.41,.05,.61,3.02,2.02,3.01,2.96-.02,1.57-2.73,2.53-2.12,4.04,.54,1.35,2.87,3.1,3.03,4.07,.24,1.4-1.43,3.03-1.08,4.49,.66,2.74,3.34,5.04,3.34,5.04,0,0,5.79-5.65,7.37-6.31,1.64-.68,6.94,3.14,6.94,3.14,0,0,1.44-2.22,1.69-3.87Zm27.23-6.57s-3.38-5.56-5.71-9.44c-2.33-3.88-4.83-6.36-4.83-6.36,0,0,5,2.16,9.51,1.97,4.51-.18,8.52-2.7,8.52-2.7,0,0-4.81,3.75-6.04,7.42-1.23,3.66-1.45,9.11-1.45,9.11Zm-74.82,28.69s-2.15,3.64-5.81,10.81c-.86,1.68,2.23,.7,.8,2.47-1.04,1.28-6.21,3.71-7.57,5.06-1.26,1.25,2.03,1.16,.93,2.37-3.7,4.03-4.14-.16-8.72,7.03-1.39,2.18-7.11,6.16-5.44,7.62,1.36,1.19,2.71,1.11,1.14,4.3-1.11,2.27-7.4,6.78-8.74,9.6-.82,1.74,3.28,.27,2.54,1.87-1.38,2.95-4.46,4.62-5.97,7.06-2.26,3.63-1.42,10.12-1.42,10.12,0,0,3.85-5.3,6.63-9.58,1.14-1.75,2.76,.75,3.84-1.37,.72-1.41,.75-3.52,1.27-5.57,.5-1.94,2.48-1.78,3.16-3.03,1.01-1.86,.82-5.04,1.19-6.36,1.1-3.92,1.95-2.89,3.06-6.15,.4-1.18-.39-4.93,.61-6.85,1.42-2.7,4.08-2.1,7.09-3.62,1.15-.58,2.36-3.86,3.51-5.03,1.61-1.62,2.94,.99,4.01-1.11,.9-1.76,1.77-5.71,2.73-8.5,1.15-3.36,1.87-2.06,2.21-3.9,.3-1.63-1.07-7.26-1.07-7.26Zm44.82,35.45s14.5-12.83,25.68-14.28c11.18-1.44,19.02,8.5,19.02,8.5,0,0-7.68,2.73-14.84,2.24-7.16-.49-5.63-4.9-13.8-4.2-8.17,.71-16.05,7.73-16.05,7.73Zm-25.58-1.23s-3.68,3.1-6.61,11.33c-1.44,4.03,1.42,3.31,.09,6.4-1.39,3.22-7.89,11.04-7,15.28,.26,1.24,2.54,.98,3.17,2.09,1.08,1.89,2.06,5.83,3.48,7.15,3.32,3.09,2.96-.79,6.59,.78,3.64,1.57,4.16,4.07,7.95,5.49,2.66,.99,2.54-1.02,5.31-.32,1,.25,1.09,2.25,2.34,2.84,1.61,.76,3.78-.82,4.82-.71,3.55,.39,5.43-1.47,5.43-1.47,0,0-3.46,1.05-8.54-1.82-1.66-.94-.52-2.17-3.03-2.99-1.48-.48-4.29,1.71-6.22,1.42-2.83-.43-3.26-3.63-3.26-3.63,0,0-5.48-.85-8.14-2.18-1.93-.96-1.78-1.43-2.36-3.56-.42-1.55-3.21-2.88-3.55-5.17-.34-2.29,1.16-3.13,2.2-4,1.2-1,3.42,1.82,3.67,.79,.55-2.28-1.45-6.37-.69-9.42,1.4-5.63-.59-3.77,.47-7.6,1.07-3.82,3.86-10.71,3.86-10.71Zm8.56,57.59s-.4,8.18-2.85,16.34c-2.45,8.15-6.96,16.29-6.96,16.29l5.91-6.52s.5,1.9,1.32,.51c.82-1.38,1.64-4.24,1.64-4.24,0,0,.86,1.45,1.55,1,.69-.45,.32-2.23,.36-4.49,.05-2.25-.24-1.42-.18-4.53,.02-.72,1.67,1.46,1.63,.1-.03-1.36-1.67-4.44-1.77-5.54-.45-5.14-.66-8.92-.66-8.92Zm40.17,.24s-2.94,5.49-3.6,8.85c-.16,.84,3.29-2.23,3.14-1.28-.38,2.44-3.51,7.15-4.12,10.32-.18,.94,2.78-2.87,2.7-1.86-.25,3.08-2.74,10.98-3.27,14.68-.38,2.64,2.52-1.62,2.64,.23,.14,2.27-1.47,8.12-1.14,10.17,.38,2.4,2.54,1.45,3.21,3.15,2.22,5.65,3.82,10.68,3.82,10.68,0,0-.16-10.05,3.15-19.09,.47-1.3,1.7,3.93,2.23,2.51,.51-1.37,1.82-11.19,2.39-12.56,1.13-2.74,2.04,2.61,3.22-.05,1.19-2.66-.83-5.25,1.53-10.61,2.35-5.36,7.89-10.82,7.89-10.82,0,0-6.17,1.18-12.12,.1-5.95-1.08-11.68-4.43-11.68-4.43Zm46.44-78.03s-2.21,4.97-1.05,10.6c1.16,5.62,.74,5.36,5.18,12.36,4.44,7,7.04,10.04,11.5,16.06,4.46,6.01,3.28,4.05,6.34,8,.28,.36,.56,.69,.84,1.03-4.49,.1-10.06,3.94-10.3,5.46-1.39,8.67,4.8,4.55,4.8,7.13,0,1.6-1.9,2.3,.09,3.84,.54,.42,1.06,.89,1.58,1.35-.47,.51-1.01,.99-1.63,1.43-5.3,3.73-5.5,2.55-12.78,3.04-7.28,.49-7.86,1.88-17.14-1.58-9.28-3.46-21-12.14-21-12.14,0,0,9.12,8.75,20.06,13.66,7.5,3.37,16.43,3.79,21.6,2.91,2.14-.37,4.5-.69,6.76-1.23-.2,.36-.39,.67-.64,1.13-.38,.7-1.28,1.81-1.93,2.4-1.71,1.55-3.44,2.39-5.55,1.92-4.58-1.03-12.71-.81-19.23-1.11-3.34-.15-5.14-.91-8.14-1.08-5.81-.33-10.51-1.2-11.79-1.43-2.58-.46-4.7-1.11-7.84-1.18-3.14-.07-4.98-.93-4.85-.26,.09,.46-2.75,.55-.2,1.23,1.66,.45,2.26,2.1,4.11,1.57,.66-.19,2.13-.53,3.69-.29,1.04,.16,.92,1.2,2,1.52,1.08,.32,3.36-.09,4.29,.02,3.21,.39,6.88,1.12,11.53,1.54,1.93,.18,3.36,1.45,5.27,1.73,1.01,.15,3.34-.46,4.42-.51,1.72-.08,1.42,.57,2.87,.62,2.29,.08,.47-.8,1.19-.86s1.17,.14,1.17,.14c0,0,0,.24-1.94,1.27-.84,.44-2.22,1.27-3.38,2.13-.67,.5,2.43,2.13,1.81,2.72-2.99,2.79-4.75,1.33-7,4.41-2.25,3.07-2.28,4.69-2.01,7.89,.13,1.49,2.26-2.06,2.32-.11,.03,.94-1.24,6.37-1.76,8.71-.45,2.02,1.89-2.71,1.92-1.86,.26,6.27-1.45,15.85-1.45,15.85l8.25-25.76,9.75-14.85c1.64-.68,2.43-.09,3.55-.02,.56,.03-1.14,1.22-.67,1.21,.83-.02,4.33-1.29,4.33-1.29,0,0,.6,.37,1.16,.26,.67-.14,1.21-.79,1.59-.87,.62-.14,.55,.71,1.02,.28,.46-.42,.81-1.9,1.23-1.29,.42,.61,.83-1.58,1.16-1.85,.46-.38,.68,.15,.9-.46,.47-1.32,.46-2.92,.32-3.87,1.88-.55,3.65-1.3,5.1-2.44,.4-.31,.77-.69,1.14-1.1,.6,0,1.18-.31,1.73-1.09,2.63-3.72,2.08-5.5,4.41-8.28,.63-.75,.74-2.57,.35-4.48-.01-.24-.03-.49-.07-.74-.17-.97-.52-1.66-1.02-2.3-.64-1.13-1.52-2.08-2.65-2.6-1.2-1.09-2.61-2.43-4.49-4.76-2.69-3.34-3.51-5.13-5.04-6.98-1.38-1.65-3.45-3.21-5.93-8.34-1.84-3.82-5.93-8.26-7.47-12.64h0c.7-.06,1.42-.15,2.15-.23,2.23-.26,4.39-.45,4.44-.89,.18-1.95-3.24-6.05-4.23-6.44-.66-.26-3.14-1.67-4.5-.91-.45-3.85-.24-7.31-.24-7.31Zm-18.76,23.67s7.66,9.51,13.52,15.98c5.85,6.47,7.77,10.27,9.19,11.17,1.42,.9-1.2-5.28-6.92-11.59-5.72-6.31-15.78-15.57-15.78-15.57Zm-13.52-42.28s4.39,3.2,8.42,6.29c4.03,3.1,7.69,6.1,7.69,6.1,0,0-1.4-4.87-.81-8.69,.59-3.82,1.33-7.49,1.33-7.49,0,0-2.31,3.26-6.47,4.21-4.16,.95-10.16-.41-10.16-.41Z"/></g><g><path class="e" d="M64.57,326.89v-62.61h10.29l19.13,53.61c-.12-1.43-.24-3.19-.39-5.28-.14-2.09-.26-4.29-.34-6.6-.09-2.32-.13-4.5-.13-6.56v-35.17h7.46v62.61h-10.29l-19.04-53.61c.11,1.37,.23,3.1,.34,5.19,.11,2.09,.21,4.29,.3,6.6,.09,2.32,.13,4.53,.13,6.65v35.17h-7.46Z"/><path class="e" d="M134.05,327.75c-3.77,0-7.02-.72-9.74-2.14-2.72-1.43-4.8-3.5-6.26-6.22-1.46-2.72-2.19-5.93-2.19-9.65v-28.3c0-3.77,.73-7,2.19-9.69,1.46-2.69,3.54-4.75,6.26-6.18,2.72-1.43,5.96-2.14,9.74-2.14s7.02,.72,9.73,2.14c2.72,1.43,4.8,3.49,6.26,6.18,1.46,2.69,2.19,5.89,2.19,9.61v28.39c0,3.72-.73,6.93-2.19,9.65-1.46,2.72-3.55,4.79-6.26,6.22-2.72,1.43-5.96,2.14-9.73,2.14Zm0-6.95c3.37,0,5.96-.96,7.76-2.87,1.8-1.92,2.7-4.65,2.7-8.19v-28.3c0-3.54-.9-6.28-2.7-8.19-1.8-1.92-4.39-2.87-7.76-2.87s-5.89,.96-7.72,2.87c-1.83,1.92-2.74,4.65-2.74,8.19v28.3c0,3.55,.91,6.28,2.74,8.19,1.83,1.92,4.4,2.87,7.72,2.87Z"/><path class="e" d="M167.67,326.89v-62.61h19.38c3.72,0,6.98,.76,9.78,2.27,2.8,1.52,4.97,3.62,6.52,6.3,1.54,2.69,2.32,5.83,2.32,9.44,0,4.23-1.1,7.86-3.3,10.89-2.2,3.03-5.19,5.12-8.96,6.26l13.12,27.45h-9.09l-12.01-26.59h-10.04v26.59h-7.72Zm7.72-33.54h11.67c3.2,0,5.78-1.01,7.72-3.04,1.94-2.03,2.92-4.7,2.92-8.02s-.97-6.06-2.92-8.06c-1.94-2-4.52-3-7.72-3h-11.67v22.13Z"/><path class="e" d="M219.22,326.89v-62.61h17.75c5.72,0,10.19,1.43,13.42,4.29,3.23,2.86,4.85,6.83,4.85,11.92,0,2.86-.6,5.35-1.8,7.46-1.2,2.12-2.9,3.75-5.1,4.89-2.2,1.14-4.85,1.69-7.93,1.63v-1.29c3.32-.06,6.19,.57,8.62,1.89,2.43,1.32,4.32,3.2,5.66,5.66,1.34,2.46,2.02,5.38,2.02,8.75,0,3.55-.74,6.63-2.23,9.26-1.49,2.63-3.6,4.65-6.35,6.05-2.74,1.4-6.03,2.1-9.86,2.1h-19.04Zm7.55-35.94h10.12c3.32,0,5.93-.89,7.85-2.66,1.92-1.77,2.87-4.17,2.87-7.21s-.94-5.43-2.83-7.21c-1.89-1.77-4.49-2.66-7.81-2.66h-10.21v19.73Zm0,28.99h10.64c3.6,0,6.45-.96,8.54-2.87,2.09-1.92,3.13-4.53,3.13-7.85s-1.04-6.22-3.13-8.36c-2.09-2.14-4.93-3.22-8.54-3.22h-10.64v22.3Z"/><path class="e" d="M271.28,326.89v-62.61h36.02v7.03h-28.39v19.38h25.39v6.95h-25.39v22.21h28.39v7.03h-36.02Z"/><path class="e" d="M322.06,326.89v-62.61h19.38c3.72,0,6.98,.76,9.78,2.27,2.8,1.52,4.97,3.62,6.52,6.3,1.54,2.69,2.32,5.83,2.32,9.44,0,4.23-1.1,7.86-3.3,10.89-2.2,3.03-5.19,5.12-8.96,6.26l13.12,27.45h-9.09l-12.01-26.59h-10.04v26.59h-7.72Zm7.72-33.54h11.67c3.2,0,5.78-1.01,7.72-3.04,1.94-2.03,2.92-4.7,2.92-8.02s-.97-6.06-2.92-8.06c-1.94-2-4.52-3-7.72-3h-11.67v22.13Z"/><path class="e" d="M387.5,326.89v-55.67h-17.15v-7.03h42.03v7.03h-17.15v55.67h-7.72Z"/><path class="e" d="M442.82,327.75c-3.77,0-7.02-.72-9.73-2.14-2.72-1.43-4.8-3.5-6.26-6.22-1.46-2.72-2.19-5.93-2.19-9.65v-28.3c0-3.77,.73-7,2.19-9.69,1.46-2.69,3.54-4.75,6.26-6.18,2.71-1.43,5.96-2.14,9.73-2.14s7.02,.72,9.74,2.14c2.72,1.43,4.8,3.49,6.26,6.18,1.46,2.69,2.19,5.89,2.19,9.61v28.39c0,3.72-.73,6.93-2.19,9.65-1.46,2.72-3.55,4.79-6.26,6.22-2.72,1.43-5.96,2.14-9.74,2.14Zm0-6.95c3.37,0,5.96-.96,7.76-2.87,1.8-1.92,2.7-4.65,2.7-8.19v-28.3c0-3.54-.9-6.28-2.7-8.19-1.8-1.92-4.39-2.87-7.76-2.87s-5.89,.96-7.72,2.87c-1.83,1.92-2.75,4.65-2.75,8.19v28.3c0,3.55,.91,6.28,2.75,8.19,1.83,1.92,4.4,2.87,7.72,2.87Z"/></g><g><path class="e" d="M108.66,437.34c-4.12,0-7.65-.69-10.59-2.06-2.95-1.37-5.22-3.34-6.82-5.92-1.6-2.57-2.43-5.63-2.49-9.18h7.72c0,3.15,1.07,5.63,3.22,7.46,2.14,1.83,5.13,2.75,8.96,2.75,3.6,0,6.42-.89,8.45-2.66,2.03-1.77,3.04-4.23,3.04-7.38,0-2.52-.67-4.72-2.02-6.6-1.34-1.89-3.27-3.2-5.79-3.95l-8.49-2.66c-4.29-1.32-7.59-3.52-9.91-6.6s-3.47-6.72-3.47-10.89c0-3.37,.76-6.3,2.27-8.79,1.51-2.49,3.65-4.43,6.39-5.83,2.74-1.4,5.97-2.1,9.69-2.1,5.49,0,9.89,1.53,13.21,4.59,3.32,3.06,5,7.13,5.06,12.22h-7.72c0-3.09-.93-5.5-2.79-7.25-1.86-1.74-4.48-2.62-7.85-2.62s-5.9,.8-7.76,2.4c-1.86,1.6-2.79,3.83-2.79,6.69,0,2.57,.69,4.8,2.06,6.69,1.37,1.89,3.35,3.23,5.92,4.03l8.58,2.75c4.17,1.32,7.4,3.55,9.69,6.69,2.29,3.15,3.43,6.83,3.43,11.06,0,3.43-.8,6.43-2.4,9.01-1.6,2.57-3.85,4.58-6.73,6-2.89,1.43-6.25,2.14-10.08,2.14Z"/><path class="e" d="M155.92,436.48v-55.67h-17.16v-7.03h42.03v7.03h-17.15v55.67h-7.72Z"/><path class="e" d="M211.24,437.34c-5.83,0-10.29-1.61-13.38-4.85-3.09-3.23-4.63-7.62-4.63-13.17v-45.46h7.72v45.46c0,3.43,.84,6.15,2.53,8.15,1.69,2,4.27,3,7.76,3s6-1,7.72-3c1.72-2,2.57-4.72,2.57-8.15v-45.46h7.72v45.46c0,5.6-1.53,10.01-4.59,13.21-3.06,3.2-7.54,4.8-13.42,4.8Z"/><path class="e" d="M244.86,436.48v-62.61h16.21c4.06,0,7.56,.77,10.51,2.32,2.94,1.54,5.23,3.72,6.86,6.52,1.63,2.8,2.45,6.12,2.45,9.95v24.96c0,3.83-.82,7.16-2.45,9.99-1.63,2.83-3.92,5.02-6.86,6.56-2.95,1.54-6.45,2.32-10.51,2.32h-16.21Zm7.72-6.86h8.49c3.77,0,6.73-1.06,8.88-3.17,2.14-2.12,3.22-5.06,3.22-8.83v-24.96c0-3.72-1.07-6.63-3.22-8.75s-5.1-3.17-8.88-3.17h-8.49v48.89Z"/><path class="e" d="M297.44,436.48v-7.03h12.78v-48.55h-12.78v-7.03h33.45v7.03h-12.78v48.55h12.78v7.03h-33.45Z"/><path class="e" d="M365.63,437.34c-3.77,0-7.02-.72-9.73-2.14-2.72-1.43-4.8-3.5-6.26-6.22-1.46-2.72-2.19-5.93-2.19-9.65v-28.3c0-3.77,.73-7,2.19-9.69,1.46-2.69,3.54-4.75,6.26-6.18,2.71-1.43,5.96-2.14,9.73-2.14s7.02,.72,9.74,2.14c2.72,1.43,4.8,3.49,6.26,6.18,1.46,2.69,2.19,5.89,2.19,9.61v28.39c0,3.72-.73,6.93-2.19,9.65-1.46,2.72-3.55,4.79-6.26,6.22-2.72,1.43-5.96,2.14-9.74,2.14Zm0-6.95c3.37,0,5.96-.96,7.76-2.87,1.8-1.92,2.7-4.65,2.7-8.19v-28.3c0-3.54-.9-6.28-2.7-8.19-1.8-1.92-4.39-2.87-7.76-2.87s-5.89,.96-7.72,2.87c-1.83,1.92-2.75,4.65-2.75,8.19v28.3c0,3.55,.91,6.28,2.75,8.19,1.83,1.92,4.4,2.87,7.72,2.87Z"/><path class="e" d="M417.43,437.34c-4.12,0-7.65-.69-10.59-2.06-2.95-1.37-5.22-3.34-6.82-5.92-1.6-2.57-2.43-5.63-2.49-9.18h7.72c0,3.15,1.07,5.63,3.22,7.46,2.14,1.83,5.13,2.75,8.96,2.75,3.6,0,6.42-.89,8.45-2.66,2.03-1.77,3.04-4.23,3.04-7.38,0-2.52-.67-4.72-2.02-6.6-1.34-1.89-3.27-3.2-5.79-3.95l-8.49-2.66c-4.29-1.32-7.59-3.52-9.91-6.6-2.32-3.09-3.47-6.72-3.47-10.89,0-3.37,.76-6.3,2.27-8.79,1.51-2.49,3.65-4.43,6.39-5.83,2.75-1.4,5.97-2.1,9.69-2.1,5.49,0,9.89,1.53,13.21,4.59,3.32,3.06,5,7.13,5.06,12.22h-7.72c0-3.09-.93-5.5-2.79-7.25-1.86-1.74-4.47-2.62-7.85-2.62s-5.9,.8-7.76,2.4c-1.86,1.6-2.79,3.83-2.79,6.69,0,2.57,.69,4.8,2.06,6.69,1.37,1.89,3.35,3.23,5.92,4.03l8.58,2.75c4.17,1.32,7.4,3.55,9.69,6.69,2.29,3.15,3.43,6.83,3.43,11.06,0,3.43-.8,6.43-2.4,9.01-1.6,2.57-3.85,4.58-6.73,6-2.89,1.43-6.25,2.14-10.08,2.14Z"/></g><g><path class="e" d="M147.27,523.46v-1.83h2.45v-8.51h-2.45v-1.83h7v1.83h-2.45v8.51h2.45v1.83h-7Z"/><path class="e" d="M156.71,523.46v-12.17h2.47l1.18,3.87c.12,.39,.22,.75,.3,1.07,.08,.32,.13,.56,.15,.7,.02-.14,.07-.38,.15-.7,.08-.32,.17-.68,.28-1.07l1.13-3.87h2.47v12.17h-1.95v-3.79c0-.56,.02-1.16,.05-1.82s.07-1.31,.12-1.97c.04-.66,.1-1.28,.16-1.87,.06-.59,.11-1.11,.16-1.55l-1.63,5.75h-1.9l-1.68-5.75c.06,.42,.11,.92,.17,1.49s.11,1.18,.16,1.83c.05,.65,.09,1.31,.12,1.98s.05,1.3,.05,1.9v3.79h-1.95Z"/><path class="e" d="M166.37,523.46l3.07-12.17h2.69l3.08,12.17h-2.13l-.67-2.95h-3.24l-.67,2.95h-2.13Zm3.19-4.65h2.47l-.73-3.27c-.12-.54-.23-1.04-.32-1.48-.09-.44-.15-.76-.18-.96-.03,.2-.09,.52-.17,.96-.08,.44-.19,.93-.33,1.46l-.73,3.29Z"/><path class="e" d="M180.86,523.63c-.78,0-1.46-.15-2.04-.44-.58-.29-1.03-.71-1.35-1.25-.32-.54-.47-1.18-.47-1.91v-5.3c0-.75,.16-1.38,.47-1.92,.32-.53,.77-.95,1.35-1.24,.58-.29,1.26-.44,2.04-.44s1.47,.15,2.04,.44c.57,.29,1.02,.71,1.34,1.24,.32,.53,.48,1.17,.48,1.92h-2.1c0-.58-.16-1.02-.47-1.32-.31-.3-.75-.45-1.3-.45s-1.01,.15-1.32,.45c-.31,.3-.47,.73-.47,1.3v5.32c0,.57,.16,1.01,.47,1.32,.31,.31,.75,.47,1.32,.47s.99-.16,1.3-.47,.47-.75,.47-1.32v-1.23h-2.07v-1.8h4.17v3.04c0,.73-.16,1.37-.48,1.91-.32,.54-.77,.96-1.34,1.25-.57,.29-1.25,.44-2.04,.44Z"/><path class="e" d="M187.29,523.46v-1.83h2.45v-8.51h-2.45v-1.83h7v1.83h-2.45v8.51h2.45v1.83h-7Z"/><path class="e" d="M197,523.46v-12.17h2.55l3.39,9.84c-.03-.36-.07-.78-.11-1.26-.04-.48-.07-.98-.09-1.48-.02-.51-.03-.95-.03-1.33v-5.77h1.9v12.17h-2.55l-3.35-9.84c.02,.32,.05,.71,.08,1.17,.03,.46,.06,.92,.08,1.4s.03,.92,.03,1.32v5.95h-1.9Z"/><path class="e" d="M207.28,523.46v-12.17h7.3v1.82h-5.25v3.17h4.67v1.8h-4.67v3.57h5.25v1.82h-7.3Z"/><path class="e" d="M220.82,523.63c-.48,0-.86-.14-1.14-.42-.28-.28-.43-.66-.43-1.13s.14-.86,.43-1.14c.28-.28,.66-.43,1.14-.43s.86,.14,1.14,.43c.28,.28,.43,.66,.43,1.14s-.14,.86-.43,1.13c-.28,.28-.66,.42-1.14,.42Z"/><path class="e" d="M240.9,523.63c-.78,0-1.46-.15-2.04-.44-.58-.29-1.03-.71-1.35-1.25-.32-.54-.47-1.18-.47-1.91v-5.3c0-.75,.16-1.38,.47-1.92,.32-.53,.77-.95,1.35-1.24,.58-.29,1.26-.44,2.04-.44s1.47,.15,2.04,.44c.57,.29,1.02,.71,1.34,1.24,.32,.53,.48,1.17,.48,1.92h-2.1c0-.58-.16-1.02-.47-1.32-.31-.3-.75-.45-1.3-.45s-1.01,.15-1.32,.45c-.31,.3-.47,.73-.47,1.3v5.32c0,.57,.16,1,.47,1.31,.31,.31,.75,.46,1.32,.46s.99-.15,1.3-.46,.47-.74,.47-1.31h2.1c0,.72-.16,1.36-.48,1.9-.32,.54-.77,.96-1.34,1.26-.57,.29-1.25,.44-2.04,.44Z"/><path class="e" d="M247.1,523.46v-12.17h3.85c.81,0,1.51,.15,2.11,.45s1.06,.72,1.39,1.26c.33,.54,.5,1.18,.5,1.91,0,.8-.2,1.51-.61,2.12-.41,.61-.95,1.04-1.64,1.3l2.42,5.14h-2.33l-2.12-4.84h-1.48v4.84h-2.08Zm2.08-6.67h1.77c.59,0,1.05-.16,1.38-.48,.33-.32,.5-.77,.5-1.33s-.17-1.03-.5-1.36c-.33-.33-.8-.49-1.38-.49h-1.77v3.67Z"/><path class="e" d="M257.31,523.46v-12.17h7.3v1.82h-5.25v3.17h4.67v1.8h-4.67v3.57h5.25v1.82h-7.3Z"/><path class="e" d="M266.43,523.46l3.07-12.17h2.69l3.08,12.17h-2.13l-.67-2.95h-3.24l-.67,2.95h-2.13Zm3.19-4.65h2.47l-.73-3.27c-.12-.54-.23-1.04-.32-1.48-.09-.44-.15-.76-.18-.96-.03,.2-.09,.52-.17,.96-.08,.44-.19,.93-.33,1.46l-.73,3.29Z"/><path class="e" d="M279.81,523.46v-10.24h-3.19v-1.93h8.47v1.93h-3.19v10.24h-2.1Z"/><path class="e" d="M287.33,523.46v-12.17h7.3v1.82h-5.25v3.17h4.67v1.8h-4.67v3.57h5.25v1.82h-7.3Z"/><path class="e" d="M300.87,523.63c-.48,0-.86-.14-1.14-.42-.28-.28-.43-.66-.43-1.13s.14-.86,.43-1.14c.28-.28,.66-.43,1.14-.43s.86,.14,1.14,.43c.28,.28,.43,.66,.43,1.14s-.14,.86-.43,1.13c-.28,.28-.66,.42-1.14,.42Z"/><path class="e" d="M320.92,523.63c-.83,0-1.56-.14-2.17-.42-.61-.28-1.08-.68-1.41-1.19-.33-.52-.5-1.13-.51-1.83h2.08c0,.5,.18,.89,.54,1.18,.36,.28,.85,.42,1.48,.42s1.07-.14,1.41-.42c.34-.28,.51-.66,.51-1.15,0-.41-.12-.77-.36-1.08-.24-.31-.58-.51-1.03-.62l-1.4-.38c-.96-.24-1.69-.68-2.21-1.32-.52-.63-.78-1.4-.78-2.3,0-.69,.16-1.29,.47-1.8,.31-.51,.75-.91,1.33-1.18,.57-.28,1.25-.42,2.03-.42,1.18,0,2.11,.3,2.8,.91s1.04,1.42,1.05,2.44h-2.08c0-.48-.16-.85-.47-1.13-.31-.27-.75-.41-1.32-.41s-.97,.13-1.27,.38c-.3,.26-.45,.62-.45,1.08,0,.42,.11,.78,.34,1.08,.23,.29,.56,.5,.99,.62l1.45,.4c.97,.25,1.71,.68,2.22,1.31,.51,.63,.77,1.4,.77,2.33,0,.69-.17,1.3-.5,1.83-.33,.53-.8,.94-1.4,1.23-.6,.29-1.31,.43-2.12,.43Z"/><path class="e" d="M327.17,523.46v-12.17h2.08v4.89h3.27v-4.89h2.08v12.17h-2.08v-5.35h-3.27v5.35h-2.08Z"/><path class="e" d="M336.48,523.46l3.07-12.17h2.69l3.08,12.17h-2.13l-.67-2.95h-3.24l-.67,2.95h-2.13Zm3.19-4.65h2.47l-.73-3.27c-.12-.54-.23-1.04-.32-1.48-.09-.44-.15-.76-.18-.96-.03,.2-.09,.52-.17,.96-.08,.44-.19,.93-.33,1.46l-.73,3.29Z"/><path class="e" d="M347.17,523.46v-12.17h3.85c.81,0,1.51,.15,2.11,.45s1.06,.72,1.39,1.26c.33,.54,.5,1.18,.5,1.91,0,.8-.2,1.51-.61,2.12-.41,.61-.95,1.04-1.64,1.3l2.42,5.14h-2.33l-2.12-4.84h-1.48v4.84h-2.08Zm2.08-6.67h1.77c.59,0,1.05-.16,1.38-.48,.33-.32,.5-.77,.5-1.33s-.17-1.03-.5-1.36c-.33-.33-.8-.49-1.38-.49h-1.77v3.67Z"/><path class="e" d="M357.37,523.46v-12.17h7.3v1.82h-5.25v3.17h4.67v1.8h-4.67v3.57h5.25v1.82h-7.3Z"/><path class="e" d="M370.92,523.63c-.48,0-.86-.14-1.14-.42-.28-.28-.43-.66-.43-1.13s.14-.86,.43-1.14c.28-.28,.66-.43,1.14-.43s.86,.14,1.14,.43c.28,.28,.43,.66,.43,1.14s-.14,.86-.43,1.13c-.28,.28-.66,.42-1.14,.42Z"/></g><polygon class="e" points="393.48 10.03 393.48 0 519.26 0 519.48 522.23 390.78 522.23 390.78 512.66 509.23 512.66 509.23 10.25 393.48 10.03"/><polygon class="e" points="126 512.2 126 522.23 .23 522.23 0 0 128.7 0 128.7 9.57 10.25 9.57 10.25 511.97 126 512.2"/></g></g></g></svg>