<?xml version="1.0" encoding="UTF-8"?><svg xmlns="http://www.w3.org/2000/svg" viewBox="0 0 441.5 444.57"><defs><style>.e{fill:#141414;isolation:isolate;opacity:.99;stroke:#000;stroke-linejoin:round;stroke-width:.74px;}.e,.f{fill-rule:evenodd;}.f{fill:none;stroke:#231f20;stroke-miterlimit:10;stroke-width:10px;}</style></defs><g id="a"/><g id="b"><g id="c"><g id="d"><path class="e" d="M185.12,10.9c-11.61,6.99-22.02,51.6-17.27,60.89,.22,.44,6.18-2.55,6.18-2.55,0,0,4.93,1.54,7.74,.72-2.3-8.1-5.9-22.56-5.5-32.86,.37-9.67,7.67-24.9,12.13-24.46,3.59,.36,9.28,3.06,14.1,7.96,6.2,6.3,11.25,15.01,11.25,15.01l5.55,9.05s-.21-6.05-.52-7.02c-1.93-6.06-22.25-33.62-33.67-26.74Zm100.04,4.41c-10.78,.09-40.46,15.65-47.8,23.6-3.33,3.6-3.18,6.1-3.18,6.1,0,0,7.27-1.37,9.35,.92,3.35,3.69,7.26,7.75,7.26,7.75,0,0-1.86-6.48,3.33-17.75,4.64-10.08,27.07-20.28,31.23-18.22,2.51,1.25-4.69,23.38-7.13,30.05-1.36,3.74-8.94,18.48-8.94,18.48,0,0,3.72-3.01,5.73-5.1,2.2-2.27,20.13-39.86,12.61-45.31-.51-.37-1.35-.54-2.47-.53Zm-30.17,36.27c.1-.78-2.14,1.16-1.91-.04,.23-1.2,2.7-4.28,2.83-4.77,.46-1.66-2.25,.81-1.41-1.02,.84-1.83,4.1-4.62,4.77-6.31,.67-1.69-3.03,.6-2.1-.45,.93-1.05,5.41-3.21,5.84-3.74,.75-.93-2.69,.13-1.36-1.01,1.33-1.14,5.59-2.78,6.66-3.54,.78-.56-2.88-.04-1.64-.97,1.24-.93,5.22-2.08,6.61-2.75,.63-.3-1.58-.19-.79-.77,.79-.58,3.12-1.03,3.94-1.54,.82-.52-1.38-.45-.49-.79,.89-.34,2.84-.76,4.06-.56,1.22,.2,1.13,.84,.83,1.36-.3,.53-1.64,1.05-1.68,1.55s1.73-.11,1.54,.45c-.17,.51-3.22,2.63-3.29,3.09-.17,1.17,2.2,.86,1.62,2.56-.32,.95-2.09,2.78-2.48,3.82-.7,1.88,.51,1.8-.23,3.76-.17,.47-2.41,2.42-2.6,2.9-.55,1.39,.73,2.18,.22,3.53-.16,.44-2.61,.84-2.8,1.52-.32,1.14,1.46,2.41,.7,3.38-.68,.87-2.73,1.65-3.05,2.32-.46,.97,.41,2.5-.15,3.49-1.05,1.86-3.48,2.96-3.48,2.96,0,0-3.03-5.32-4.04-6.13-1.05-.84-5.7,.83-5.7,.83,0,0-.58-1.92-.42-3.17Zm-48.11,5.58c.13-.86,1.93,1.89,2.05,.54,.12-1.35-1.57-5.4-1.56-5.96,.02-1.91,2.16,1.55,1.82-.66-.33-2.21-2.96-6.18-3.15-8.19-.19-2,3.05,1.57,2.37,.17-.68-1.4-4.78-5.08-5.08-5.78-.52-1.22,2.83,.96,1.76-.66-1.06-1.62-5.11-4.68-6.02-5.82-.66-.83,3.08,.84,2.04-.53-1.04-1.37-4.93-3.82-6.21-4.96-.58-.51,1.74,.28,1.08-.58-.66-.86-3.01-2.05-3.73-2.85-.72-.8,1.61-.06,.76-.69-.85-.63-2.8-1.68-4.16-1.84-1.37-.16-1.46,.55-1.3,1.2,.16,.65,1.43,1.63,1.31,2.17-.12,.55-1.81-.65-1.79,.01,.02,.6,2.63,3.8,2.56,4.3-.18,1.3-2.61,.24-2.51,2.23,.05,1.11,1.38,3.61,1.47,4.83,.17,2.22-1.09,1.76-.91,4.08,.04,.55,1.83,3.32,1.88,3.89,.16,1.65-1.45,2.1-1.32,3.7,.04,.52,2.53,1.69,2.52,2.49-.01,1.32-2.29,2.12-1.78,3.4,.45,1.14,2.41,2.6,2.55,3.41,.2,1.18-1.2,2.54-.9,3.77,.55,2.3,2.8,4.23,2.8,4.23,0,0,4.86-4.75,6.19-5.3,1.38-.57,5.83,2.63,5.83,2.63,0,0,1.21-1.87,1.42-3.25Zm22.86-5.51s-2.84-4.67-4.8-7.92c-1.96-3.26-4.06-5.34-4.06-5.34,0,0,4.2,1.81,7.98,1.66,3.78-.15,7.15-2.27,7.15-2.27,0,0-4.04,3.15-5.07,6.23-1.03,3.07-1.21,7.65-1.21,7.65Zm-62.81,24.09s-1.8,3.05-4.88,9.07c-.72,1.41,1.87,.59,.67,2.07-.87,1.08-5.21,3.11-6.35,4.25-1.05,1.05,1.71,.98,.78,1.99-3.1,3.38-3.47-.14-7.32,5.9-1.17,1.83-5.97,5.17-4.57,6.39,1.14,.99,2.27,.93,.96,3.61-.94,1.91-6.22,5.69-7.33,8.06-.69,1.46,2.75,.23,2.13,1.57-1.16,2.48-3.74,3.88-5.01,5.93-1.89,3.05-1.19,8.5-1.19,8.5,0,0,3.23-4.45,5.57-8.04,.96-1.47,2.31,.63,3.23-1.15,.6-1.18,.63-2.96,1.07-4.67,.42-1.63,2.09-1.5,2.65-2.54,.85-1.56,.69-4.23,1-5.34,.92-3.29,1.63-2.43,2.57-5.16,.34-.99-.33-4.14,.52-5.75,1.19-2.27,3.42-1.76,5.95-3.04,.97-.49,1.98-3.24,2.95-4.22,1.35-1.36,2.47,.83,3.37-.93,.75-1.48,1.48-4.79,2.29-7.13,.97-2.82,1.57-1.73,1.86-3.27,.25-1.37-.9-6.1-.9-6.1Zm37.63,29.76s12.17-10.77,21.55-11.99c9.38-1.21,15.97,7.14,15.97,7.14,0,0-6.45,2.29-12.46,1.88-6.01-.41-4.73-4.12-11.59-3.52-6.86,.59-13.48,6.49-13.48,6.49Zm-21.47-1.04s-3.09,2.61-5.54,9.51c-1.2,3.38,1.19,2.78,.08,5.37-1.16,2.7-6.62,9.27-5.88,12.82,.22,1.04,2.13,.82,2.67,1.76,.9,1.59,1.73,4.9,2.92,6,2.79,2.6,2.48-.66,5.54,.65,3.05,1.31,3.5,3.42,6.67,4.61,2.23,.83,2.13-.86,4.46-.27,.84,.21,.92,1.89,1.96,2.39,1.35,.64,3.18-.69,4.05-.59,2.98,.33,4.56-1.23,4.56-1.23,0,0-2.9,.88-7.17-1.53-1.4-.79-.44-1.83-2.54-2.51-1.24-.41-3.6,1.44-5.22,1.19-2.38-.36-2.74-3.05-2.74-3.05,0,0-4.6-.71-6.83-1.83-1.62-.81-1.49-1.2-1.98-2.99-.36-1.3-2.7-2.41-2.98-4.34-.28-1.92,.97-2.63,1.85-3.36,1-.84,2.87,1.53,3.08,.66,.46-1.91-1.22-5.35-.58-7.91,1.17-4.72-.5-3.17,.4-6.38,.89-3.21,3.24-8.99,3.24-8.99Zm7.18,48.35s-.33,6.87-2.39,13.71c-2.06,6.85-5.84,13.67-5.84,13.67l4.96-5.47s.42,1.59,1.11,.43c.69-1.16,1.37-3.56,1.37-3.56,0,0,.72,1.22,1.3,.84,.58-.38,.27-1.87,.31-3.77,.04-1.89-.2-1.19-.15-3.8,.01-.6,1.4,1.23,1.37,.09-.03-1.14-1.41-3.73-1.49-4.65-.38-4.32-.55-7.49-.55-7.49Zm33.72,.2s-2.47,4.61-3.02,7.43c-.14,.7,2.76-1.87,2.64-1.07-.32,2.05-2.95,6-3.45,8.66-.15,.79,2.33-2.41,2.27-1.56-.21,2.59-2.3,9.21-2.74,12.33-.32,2.22,2.12-1.36,2.21,.19,.12,1.9-1.23,6.82-.96,8.54,.32,2.01,2.13,1.22,2.69,2.65,1.87,4.74,3.21,8.96,3.21,8.96,0,0-.14-8.44,2.65-16.02,.4-1.09,1.43,3.3,1.87,2.11,.43-1.15,1.53-9.39,2-10.54,.94-2.3,1.71,2.19,2.71-.04,1-2.24-.69-4.41,1.28-8.9,1.98-4.5,6.62-9.08,6.62-9.08,0,0-5.18,.99-10.17,.09-4.99-.91-9.8-3.72-9.8-3.72Zm38.98-65.5s-1.85,4.18-.88,8.9c.98,4.72,.62,4.5,4.35,10.37,3.73,5.88,5.91,8.43,9.65,13.48,3.74,5.05,2.75,3.4,5.32,6.72,.23,.3,.47,.58,.71,.87-3.77,.09-8.44,3.31-8.65,4.58-1.17,7.28,4.03,3.82,4.03,5.99,0,1.34-1.6,1.93,.08,3.22,.46,.35,.89,.75,1.32,1.13-.4,.43-.85,.83-1.37,1.2-4.44,3.13-4.61,2.14-10.73,2.56-6.11,.41-6.6,1.58-14.39-1.32-7.79-2.9-17.63-10.19-17.63-10.19,0,0,7.65,7.34,16.84,11.46,6.3,2.83,13.79,3.19,18.13,2.44,1.8-.31,3.78-.58,5.68-1.03-.17,.3-.32,.56-.54,.95-.32,.59-1.08,1.52-1.62,2.01-1.44,1.3-2.89,2.01-4.66,1.61-3.84-.86-10.67-.68-16.14-.93-2.8-.13-4.31-.76-6.83-.9-4.88-.28-8.83-1.01-9.89-1.2-2.17-.39-3.94-.93-6.58-.99-2.63-.06-4.18-.78-4.07-.22,.07,.38-2.31,.46-.17,1.04,1.39,.38,1.9,1.76,3.45,1.31,.55-.16,1.79-.44,3.1-.24,.87,.14,.78,1.01,1.68,1.28,.91,.27,2.82-.08,3.6,.02,2.7,.33,5.78,.94,9.68,1.3,1.62,.15,2.82,1.22,4.42,1.46,.85,.13,2.81-.39,3.71-.43,1.44-.06,1.19,.48,2.41,.52,1.92,.07,.4-.67,1-.72s.98,.12,.98,.12c0,0,0,.2-1.63,1.07-.7,.37-1.86,1.06-2.83,1.79-.56,.42,2.04,1.79,1.52,2.28-2.51,2.34-3.98,1.12-5.88,3.7-1.89,2.58-1.92,3.94-1.69,6.62,.11,1.25,1.9-1.73,1.95-.09,.02,.79-1.04,5.35-1.48,7.31-.38,1.7,1.58-2.27,1.61-1.56,.22,5.26-1.22,13.3-1.22,13.3l6.93-21.63,8.18-12.46c1.38-.57,2.04-.07,2.98-.02,.47,.03-.96,1.03-.57,1.02,.7-.01,3.63-1.08,3.63-1.08,0,0,.51,.31,.97,.22,.56-.11,1.02-.66,1.33-.73,.52-.12,.46,.6,.86,.24,.39-.35,.68-1.6,1.04-1.08,.35,.51,.7-1.32,.97-1.55,.38-.32,.57,.12,.75-.38,.4-1.11,.38-2.45,.27-3.25,1.58-.47,3.06-1.09,4.28-2.05,.34-.26,.65-.58,.95-.92,.51,0,.99-.26,1.45-.91,2.21-3.12,1.75-4.62,3.7-6.95,.53-.63,.62-2.15,.29-3.76-.01-.21-.02-.41-.06-.62-.15-.82-.44-1.39-.86-1.93-.54-.95-1.27-1.74-2.22-2.18-1.01-.92-2.19-2.04-3.77-4-2.26-2.8-2.94-4.31-4.23-5.86-1.15-1.39-2.9-2.69-4.98-7-1.55-3.2-4.98-6.94-6.27-10.61h0c.59-.05,1.19-.12,1.8-.19,1.87-.22,3.69-.38,3.72-.75,.15-1.64-2.72-5.08-3.55-5.4-.55-.22-2.64-1.4-3.78-.77-.38-3.23-.2-6.14-.2-6.14Zm-15.75,19.87s6.43,7.99,11.35,13.42c4.91,5.43,6.52,8.62,7.71,9.38,1.19,.76-1.01-4.43-5.81-9.73-4.8-5.3-13.25-13.07-13.25-13.07Zm-11.35-35.49s3.69,2.68,7.07,5.28c3.38,2.6,6.46,5.12,6.46,5.12,0,0-1.18-4.09-.68-7.3s1.12-6.29,1.12-6.29c0,0-1.94,2.74-5.43,3.53-3.49,.8-8.53-.34-8.53-.34Z"/></g><polyline class="f" points="106.16 6.62 5 5.08 5 435.37 106.16 435.37"/><polyline class="f" points="335.33 433.82 436.5 435.37 436.5 5.08 335.33 5.08"/><g><path d="M56.5,275.35v-52.56h8.64l16.06,45c-.1-1.2-.2-2.68-.32-4.43-.12-1.75-.22-3.6-.29-5.54-.07-1.94-.11-3.78-.11-5.51v-29.52h6.26v52.56h-8.64l-15.98-45c.1,1.15,.19,2.6,.29,4.36,.1,1.75,.18,3.6,.25,5.54,.07,1.94,.11,3.8,.11,5.58v29.52h-6.26Z"/><path d="M114.81,276.07c-3.17,0-5.89-.6-8.17-1.8-2.28-1.2-4.03-2.94-5.26-5.22-1.22-2.28-1.84-4.98-1.84-8.1v-23.76c0-3.17,.61-5.88,1.84-8.14,1.22-2.26,2.98-3.98,5.26-5.18,2.28-1.2,5-1.8,8.17-1.8s5.89,.6,8.17,1.8c2.28,1.2,4.03,2.93,5.26,5.18,1.22,2.26,1.84,4.94,1.84,8.06v23.83c0,3.12-.61,5.82-1.84,8.1-1.22,2.28-2.98,4.02-5.26,5.22-2.28,1.2-5,1.8-8.17,1.8Zm0-5.83c2.83,0,5-.8,6.52-2.41,1.51-1.61,2.27-3.9,2.27-6.88v-23.76c0-2.98-.76-5.27-2.27-6.88-1.51-1.61-3.68-2.41-6.52-2.41s-4.94,.8-6.48,2.41c-1.54,1.61-2.3,3.9-2.3,6.88v23.76c0,2.98,.77,5.27,2.3,6.88,1.54,1.61,3.7,2.41,6.48,2.41Z"/><path d="M143.04,275.35v-52.56h16.27c3.12,0,5.86,.64,8.21,1.91,2.35,1.27,4.18,3.04,5.47,5.29,1.3,2.26,1.94,4.9,1.94,7.92,0,3.55-.92,6.6-2.77,9.14-1.85,2.54-4.36,4.3-7.52,5.26l11.02,23.04h-7.63l-10.08-22.32h-8.42v22.32h-6.48Zm6.48-28.15h9.79c2.69,0,4.85-.85,6.48-2.56,1.63-1.7,2.45-3.95,2.45-6.73s-.82-5.09-2.45-6.77c-1.63-1.68-3.79-2.52-6.48-2.52h-9.79v18.58Z"/><path d="M186.31,275.35v-52.56h14.9c4.8,0,8.56,1.2,11.27,3.6,2.71,2.4,4.07,5.74,4.07,10.01,0,2.4-.5,4.49-1.51,6.26-1.01,1.78-2.44,3.14-4.28,4.1-1.85,.96-4.07,1.42-6.66,1.37v-1.08c2.78-.05,5.2,.48,7.24,1.58,2.04,1.1,3.62,2.69,4.75,4.75,1.13,2.06,1.69,4.51,1.69,7.34,0,2.98-.62,5.57-1.87,7.78-1.25,2.21-3.02,3.9-5.33,5.08-2.3,1.18-5.06,1.76-8.28,1.76h-15.98Zm6.34-30.17h8.5c2.78,0,4.98-.74,6.59-2.23,1.61-1.49,2.41-3.5,2.41-6.05s-.79-4.56-2.38-6.05c-1.58-1.49-3.77-2.23-6.55-2.23h-8.57v16.56Zm0,24.34h8.93c3.02,0,5.41-.8,7.16-2.41,1.75-1.61,2.63-3.8,2.63-6.59s-.88-5.22-2.63-7.02c-1.75-1.8-4.14-2.7-7.16-2.7h-8.93v18.72Z"/><path d="M230.01,275.35v-52.56h30.24v5.9h-23.83v16.27h21.31v5.83h-21.31v18.65h23.83v5.9h-30.24Z"/><path d="M272.64,275.35v-52.56h16.27c3.12,0,5.86,.64,8.21,1.91,2.35,1.27,4.18,3.04,5.47,5.29,1.3,2.26,1.94,4.9,1.94,7.92,0,3.55-.92,6.6-2.77,9.14-1.85,2.54-4.36,4.3-7.52,5.26l11.02,23.04h-7.63l-10.08-22.32h-8.42v22.32h-6.48Zm6.48-28.15h9.79c2.69,0,4.85-.85,6.48-2.56,1.63-1.7,2.45-3.95,2.45-6.73s-.82-5.09-2.45-6.77c-1.63-1.68-3.79-2.52-6.48-2.52h-9.79v18.58Z"/><path d="M327.57,275.35v-46.73h-14.4v-5.9h35.28v5.9h-14.4v46.73h-6.48Z"/><path d="M374.01,276.07c-3.17,0-5.89-.6-8.17-1.8-2.28-1.2-4.03-2.94-5.26-5.22-1.22-2.28-1.84-4.98-1.84-8.1v-23.76c0-3.17,.61-5.88,1.84-8.14,1.22-2.26,2.98-3.98,5.26-5.18,2.28-1.2,5-1.8,8.17-1.8s5.89,.6,8.17,1.8c2.28,1.2,4.03,2.93,5.26,5.18,1.22,2.26,1.84,4.94,1.84,8.06v23.83c0,3.12-.61,5.82-1.84,8.1-1.22,2.28-2.98,4.02-5.26,5.22-2.28,1.2-5,1.8-8.17,1.8Zm0-5.83c2.83,0,5-.8,6.52-2.41,1.51-1.61,2.27-3.9,2.27-6.88v-23.76c0-2.98-.76-5.27-2.27-6.88-1.51-1.61-3.68-2.41-6.52-2.41s-4.94,.8-6.48,2.41c-1.54,1.61-2.3,3.9-2.3,6.88v23.76c0,2.98,.77,5.27,2.3,6.88,1.54,1.61,3.7,2.41,6.48,2.41Z"/></g><g><path d="M93.5,368.07c-3.46,0-6.42-.58-8.89-1.73-2.47-1.15-4.38-2.81-5.72-4.97-1.34-2.16-2.04-4.73-2.09-7.7h6.48c0,2.64,.9,4.73,2.7,6.26,1.8,1.54,4.31,2.3,7.52,2.3,3.02,0,5.39-.74,7.09-2.23,1.7-1.49,2.56-3.55,2.56-6.19,0-2.11-.56-3.96-1.69-5.54-1.13-1.58-2.75-2.69-4.86-3.31l-7.13-2.23c-3.6-1.1-6.37-2.95-8.32-5.54s-2.92-5.64-2.92-9.14c0-2.83,.64-5.29,1.91-7.38,1.27-2.09,3.06-3.72,5.36-4.9,2.3-1.18,5.02-1.76,8.14-1.76,4.61,0,8.3,1.28,11.09,3.85,2.78,2.57,4.2,5.99,4.25,10.26h-6.48c0-2.59-.78-4.62-2.34-6.08-1.56-1.46-3.76-2.2-6.59-2.2s-4.96,.67-6.52,2.02c-1.56,1.34-2.34,3.22-2.34,5.62,0,2.16,.58,4.03,1.73,5.62s2.81,2.71,4.97,3.38l7.2,2.3c3.5,1.1,6.22,2.98,8.14,5.62,1.92,2.64,2.88,5.74,2.88,9.29,0,2.88-.67,5.4-2.02,7.56-1.34,2.16-3.23,3.84-5.65,5.04-2.42,1.2-5.25,1.8-8.46,1.8Z"/><path d="M133.17,367.35v-46.73h-14.4v-5.9h35.28v5.9h-14.4v46.73h-6.48Z"/><path d="M179.61,368.07c-4.9,0-8.64-1.36-11.23-4.07-2.59-2.71-3.89-6.4-3.89-11.05v-38.16h6.48v38.16c0,2.88,.71,5.16,2.12,6.84,1.42,1.68,3.59,2.52,6.52,2.52s5.04-.84,6.48-2.52c1.44-1.68,2.16-3.96,2.16-6.84v-38.16h6.48v38.16c0,4.7-1.29,8.4-3.85,11.09-2.57,2.69-6.32,4.03-11.27,4.03Z"/><path d="M207.84,367.35v-52.56h13.61c3.41,0,6.35,.65,8.82,1.94,2.47,1.3,4.39,3.12,5.76,5.47,1.37,2.35,2.05,5.14,2.05,8.35v20.95c0,3.22-.68,6.01-2.05,8.39s-3.29,4.21-5.76,5.51c-2.47,1.3-5.41,1.94-8.82,1.94h-13.61Zm6.48-5.76h7.13c3.17,0,5.65-.89,7.45-2.66,1.8-1.78,2.7-4.25,2.7-7.42v-20.95c0-3.12-.9-5.57-2.7-7.34-1.8-1.78-4.28-2.66-7.45-2.66h-7.13v41.04Z"/><path d="M251.97,367.35v-5.9h10.73v-40.75h-10.73v-5.9h28.08v5.9h-10.73v40.75h10.73v5.9h-28.08Z"/><path d="M309.21,368.07c-3.17,0-5.89-.6-8.17-1.8-2.28-1.2-4.03-2.94-5.26-5.22-1.22-2.28-1.84-4.98-1.84-8.1v-23.76c0-3.17,.61-5.88,1.84-8.14,1.22-2.26,2.98-3.98,5.26-5.18,2.28-1.2,5-1.8,8.17-1.8s5.89,.6,8.17,1.8c2.28,1.2,4.03,2.93,5.26,5.18,1.22,2.26,1.84,4.94,1.84,8.06v23.83c0,3.12-.61,5.82-1.84,8.1-1.22,2.28-2.98,4.02-5.26,5.22-2.28,1.2-5,1.8-8.17,1.8Zm0-5.83c2.83,0,5-.8,6.52-2.41s2.27-3.9,2.27-6.88v-23.76c0-2.98-.76-5.27-2.27-6.88-1.51-1.61-3.68-2.41-6.52-2.41s-4.94,.8-6.48,2.41c-1.54,1.61-2.3,3.9-2.3,6.88v23.76c0,2.98,.77,5.27,2.3,6.88,1.54,1.61,3.7,2.41,6.48,2.41Z"/><path d="M352.7,368.07c-3.46,0-6.42-.58-8.89-1.73-2.47-1.15-4.38-2.81-5.72-4.97s-2.04-4.73-2.09-7.7h6.48c0,2.64,.9,4.73,2.7,6.26,1.8,1.54,4.31,2.3,7.52,2.3,3.02,0,5.39-.74,7.09-2.23,1.7-1.49,2.56-3.55,2.56-6.19,0-2.11-.57-3.96-1.69-5.54-1.13-1.58-2.75-2.69-4.86-3.31l-7.13-2.23c-3.6-1.1-6.37-2.95-8.32-5.54-1.94-2.59-2.92-5.64-2.92-9.14,0-2.83,.64-5.29,1.91-7.38,1.27-2.09,3.06-3.72,5.36-4.9,2.3-1.18,5.02-1.76,8.14-1.76,4.61,0,8.3,1.28,11.09,3.85,2.78,2.57,4.2,5.99,4.25,10.26h-6.48c0-2.59-.78-4.62-2.34-6.08-1.56-1.46-3.76-2.2-6.59-2.2s-4.96,.67-6.52,2.02c-1.56,1.34-2.34,3.22-2.34,5.62,0,2.16,.58,4.03,1.73,5.62,1.15,1.58,2.81,2.71,4.97,3.38l7.2,2.3c3.5,1.1,6.22,2.98,8.14,5.62,1.92,2.64,2.88,5.74,2.88,9.29,0,2.88-.67,5.4-2.02,7.56-1.34,2.16-3.23,3.84-5.65,5.04s-5.25,1.8-8.46,1.8Z"/></g><g><path d="M131.47,440.37v-1.15h2.09v-7.92h-2.09v-1.15h5.46v1.15h-2.09v7.92h2.09v1.15h-5.46Z"/><path d="M139.47,440.37v-10.22h1.65l1.06,3.3c.1,.3,.2,.59,.28,.89s.14,.52,.18,.68c.05-.16,.11-.39,.18-.68s.16-.59,.25-.9l1.01-3.29h1.65v10.22h-1.23v-3.71c0-.41,.01-.88,.04-1.4,.03-.52,.07-1.06,.11-1.6,.05-.55,.1-1.07,.15-1.57,.05-.5,.1-.94,.13-1.31l-1.65,5.11h-1.33l-1.67-5.11c.05,.36,.09,.79,.14,1.27,.05,.48,.09,.99,.13,1.53,.04,.54,.07,1.07,.1,1.6,.03,.53,.04,1.03,.04,1.48v3.71h-1.23Z"/><path d="M147.5,440.37l2.66-10.22h1.69l2.65,10.22h-1.27l-.67-2.72h-3.09l-.67,2.72h-1.29Zm2.21-3.78h2.58l-.78-3.15c-.15-.6-.27-1.1-.35-1.5s-.14-.66-.15-.78c-.02,.12-.07,.38-.15,.78s-.2,.9-.35,1.48l-.78,3.16Z"/><path d="M159.46,440.51c-.62,0-1.15-.12-1.6-.35s-.8-.57-1.05-1.01c-.25-.44-.37-.97-.37-1.58v-4.62c0-.62,.12-1.14,.37-1.58,.25-.44,.6-.77,1.05-1.01s.99-.35,1.6-.35,1.15,.12,1.6,.36c.45,.24,.79,.58,1.04,1.01,.24,.44,.36,.96,.36,1.57h-1.26c0-.58-.15-1.02-.46-1.34-.3-.31-.73-.47-1.28-.47s-.98,.15-1.29,.46c-.31,.31-.47,.75-.47,1.33v4.63c0,.58,.16,1.03,.47,1.34,.31,.32,.74,.48,1.29,.48s.98-.16,1.28-.48c.3-.32,.46-.76,.46-1.34v-1.26h-2.07v-1.15h3.33v2.41c0,.6-.12,1.12-.36,1.56-.24,.44-.59,.78-1.04,1.02-.45,.24-.98,.36-1.6,.36Z"/><path d="M165.07,440.37v-1.15h2.09v-7.92h-2.09v-1.15h5.46v1.15h-2.09v7.92h2.09v1.15h-5.46Z"/><path d="M173.26,440.37v-10.22h1.68l3.12,8.75c-.02-.23-.04-.52-.06-.86-.02-.34-.04-.7-.06-1.08-.01-.38-.02-.73-.02-1.07v-5.74h1.22v10.22h-1.68l-3.11-8.75c.02,.22,.04,.51,.06,.85,.02,.34,.03,.7,.05,1.08s.02,.74,.02,1.08v5.74h-1.22Z"/><path d="M181.8,440.37v-10.22h5.88v1.15h-4.63v3.16h4.14v1.13h-4.14v3.63h4.63v1.15h-5.88Z"/><path d="M193,440.51c-.35,0-.64-.1-.85-.31s-.31-.48-.31-.83c0-.36,.1-.65,.31-.87,.21-.21,.49-.32,.85-.32s.64,.11,.85,.32c.21,.21,.31,.5,.31,.87s-.1,.62-.31,.83-.49,.31-.85,.31Z"/><path d="M209.86,440.51c-.62,0-1.15-.12-1.6-.35s-.8-.57-1.05-1.01c-.25-.44-.37-.97-.37-1.58v-4.62c0-.62,.12-1.14,.37-1.58,.25-.44,.6-.77,1.05-1.01s.99-.35,1.6-.35,1.15,.12,1.6,.36c.45,.24,.79,.58,1.04,1.01,.24,.44,.36,.96,.36,1.57h-1.26c0-.58-.15-1.02-.46-1.34-.3-.31-.73-.47-1.28-.47s-.98,.15-1.29,.46c-.31,.31-.47,.75-.47,1.33v4.63c0,.58,.16,1.02,.47,1.34,.31,.31,.74,.47,1.29,.47s.98-.16,1.28-.47c.3-.31,.46-.76,.46-1.34h1.26c0,.6-.12,1.12-.36,1.56-.24,.44-.59,.78-1.04,1.02-.45,.24-.98,.36-1.6,.36Z"/><path d="M215.29,440.37v-10.22h3.16c.61,0,1.14,.12,1.6,.37,.46,.25,.81,.59,1.06,1.03,.25,.44,.38,.95,.38,1.54,0,.69-.18,1.28-.54,1.78-.36,.5-.85,.83-1.46,1.02l2.14,4.48h-1.48l-1.96-4.34h-1.64v4.34h-1.26Zm1.26-5.47h1.9c.52,0,.94-.17,1.26-.5s.48-.77,.48-1.31-.16-.99-.48-1.32c-.32-.33-.74-.49-1.26-.49h-1.9v3.61Z"/><path d="M223.8,440.37v-10.22h5.88v1.15h-4.63v3.16h4.14v1.13h-4.14v3.63h4.63v1.15h-5.88Z"/><path d="M231.5,440.37l2.66-10.22h1.69l2.65,10.22h-1.27l-.67-2.72h-3.09l-.67,2.72h-1.29Zm2.21-3.78h2.58l-.78-3.15c-.15-.6-.27-1.1-.35-1.5s-.14-.66-.15-.78c-.02,.12-.07,.38-.15,.78s-.2,.9-.35,1.48l-.78,3.16Z"/><path d="M242.77,440.37v-9.09h-2.8v-1.15h6.86v1.15h-2.8v9.09h-1.26Z"/><path d="M249,440.37v-10.22h5.88v1.15h-4.63v3.16h4.14v1.13h-4.14v3.63h4.63v1.15h-5.88Z"/><path d="M260.2,440.51c-.35,0-.64-.1-.85-.31s-.31-.48-.31-.83c0-.36,.1-.65,.31-.87,.21-.21,.49-.32,.85-.32s.64,.11,.85,.32c.21,.21,.31,.5,.31,.87s-.1,.62-.31,.83-.49,.31-.85,.31Z"/><path d="M277.06,440.51c-.67,0-1.25-.11-1.73-.34-.48-.22-.85-.55-1.11-.97s-.4-.92-.41-1.5h1.26c0,.51,.17,.92,.52,1.22,.35,.3,.84,.45,1.46,.45,.59,0,1.05-.14,1.38-.43,.33-.29,.5-.69,.5-1.2,0-.41-.11-.77-.33-1.08-.22-.31-.53-.52-.95-.64l-1.39-.43c-.7-.21-1.24-.57-1.62-1.08s-.57-1.1-.57-1.78c0-.55,.12-1.03,.37-1.44,.25-.41,.59-.72,1.04-.95,.45-.23,.98-.34,1.58-.34,.9,0,1.61,.25,2.16,.75,.54,.5,.82,1.16,.83,2h-1.26c0-.5-.15-.9-.46-1.18-.3-.28-.73-.43-1.28-.43s-.96,.13-1.27,.39c-.3,.26-.46,.62-.46,1.09,0,.42,.11,.78,.34,1.09,.22,.31,.55,.53,.97,.66l1.4,.45c.68,.21,1.21,.58,1.58,1.09,.37,.51,.56,1.12,.56,1.81,0,.56-.13,1.05-.39,1.47-.26,.42-.63,.75-1.1,.98s-1.02,.35-1.65,.35Z"/><path d="M282.5,440.37v-10.22h1.26v4.37h3.28v-4.37h1.26v10.22h-1.26v-4.7h-3.28v4.7h-1.26Z"/><path d="M290.3,440.37l2.66-10.22h1.69l2.65,10.22h-1.27l-.67-2.72h-3.09l-.67,2.72h-1.29Zm2.21-3.78h2.58l-.78-3.15c-.15-.6-.27-1.1-.35-1.5s-.14-.66-.15-.78c-.02,.12-.07,.38-.15,.78s-.2,.9-.35,1.48l-.78,3.16Z"/><path d="M299.29,440.37v-10.22h3.16c.61,0,1.14,.12,1.6,.37,.46,.25,.81,.59,1.06,1.03,.25,.44,.38,.95,.38,1.54,0,.69-.18,1.28-.54,1.78-.36,.5-.85,.83-1.46,1.02l2.14,4.48h-1.48l-1.96-4.34h-1.64v4.34h-1.26Zm1.26-5.47h1.9c.52,0,.94-.17,1.26-.5s.48-.77,.48-1.31-.16-.99-.48-1.32c-.32-.33-.74-.49-1.26-.49h-1.9v3.61Z"/><path d="M307.8,440.37v-10.22h5.88v1.15h-4.63v3.16h4.14v1.13h-4.14v3.63h4.63v1.15h-5.88Z"/></g></g></g></svg>