<?xml version="1.0" encoding="UTF-8"?><svg xmlns="http://www.w3.org/2000/svg" viewBox="0 0 304.45 306.79"><defs><style>.e{isolation:isolate;opacity:.99;}.e,.f{fill-rule:evenodd;}.e,.g{fill:#9ca3af;}.f{fill:none;stroke:#9ca3af;stroke-miterlimit:10;stroke-width:10px;}</style></defs><g id="a"/><g id="b"><g id="c"><g id="d"><path class="e" d="M113.69,18.24c-16.59,10-31.48,73.77-24.68,87.04,.32,.62,8.84-3.64,8.84-3.64,0,0,7.04,2.2,11.06,1.03-3.28-11.58-8.43-32.26-7.87-46.98,.53-13.83,10.97-35.59,17.35-34.96,5.13,.51,13.26,4.37,20.16,11.39,8.87,9.01,16.08,21.45,16.08,21.45l7.94,12.94s-.31-8.65-.75-10.04c-2.76-8.67-31.81-48.06-48.14-38.23Zm143.03,6.3c-15.42,.13-57.84,22.38-68.33,33.74-4.76,5.15-4.55,8.72-4.55,8.72,0,0,10.39-1.96,13.36,1.31,4.8,5.28,10.37,11.08,10.37,11.08,0,0-2.66-9.26,4.76-25.37,6.63-14.41,38.7-29,44.65-26.05,3.59,1.78-6.7,33.43-10.19,42.96-1.95,5.34-12.78,26.42-12.78,26.42,0,0,5.31-4.31,8.2-7.29,3.15-3.25,28.79-56.98,18.02-64.78-.73-.53-1.93-.77-3.53-.75Zm-43.14,51.85c.14-1.11-3.06,1.66-2.73-.06,.33-1.72,3.86-6.12,4.05-6.82,.65-2.38-3.22,1.16-2.02-1.46,1.2-2.62,5.86-6.6,6.81-9.01,.95-2.41-4.34,.86-3-.64,1.34-1.5,7.73-4.58,8.35-5.35,1.08-1.33-3.84,.18-1.95-1.44,1.9-1.63,7.99-3.97,9.53-5.07,1.12-.8-4.12-.06-2.34-1.39,1.78-1.33,7.46-2.98,9.45-3.93,.9-.43-2.26-.27-1.13-1.1,1.12-.83,4.46-1.47,5.63-2.2,1.17-.74-1.97-.65-.7-1.13,1.28-.48,4.06-1.08,5.81-.8,1.75,.29,1.61,1.2,1.18,1.95-.43,.75-2.35,1.5-2.4,2.22-.05,.72,2.47-.16,2.21,.65-.24,.73-4.6,3.77-4.7,4.42-.24,1.67,3.14,1.23,2.32,3.66-.46,1.36-2.99,3.98-3.54,5.46-1,2.69,.72,2.57-.32,5.38-.25,.67-3.44,3.46-3.71,4.14-.79,1.99,1.04,3.11,.32,5.05-.23,.62-3.74,1.19-4.01,2.18-.45,1.64,2.08,3.44,1,4.84-.97,1.25-3.91,2.36-4.37,3.32-.66,1.39,.58,3.57-.22,4.99-1.5,2.66-4.97,4.24-4.97,4.24,0,0-4.33-7.6-5.77-8.76-1.5-1.2-8.15,1.19-8.15,1.19,0,0-.83-2.74-.6-4.53Zm-68.78,7.97c.19-1.23,2.76,2.71,2.94,.77,.17-1.94-2.24-7.71-2.24-8.52,.03-2.73,3.08,2.22,2.61-.94-.48-3.16-4.23-8.84-4.51-11.7-.28-2.87,4.36,2.24,3.4,.24-.97-2.01-6.84-7.26-7.27-8.26-.74-1.75,4.04,1.37,2.52-.94-1.52-2.32-7.31-6.69-8.61-8.32-.95-1.19,4.41,1.2,2.92-.76-1.49-1.96-7.05-5.47-8.87-7.08-.83-.74,2.49,.4,1.54-.83-.95-1.23-4.31-2.93-5.33-4.08-1.03-1.14,2.3-.08,1.09-.99-1.22-.9-4-2.4-5.95-2.63-1.95-.23-2.09,.78-1.86,1.72,.23,.94,2.05,2.32,1.88,3.11-.17,.78-2.58-.92-2.55,.02,.03,.86,3.76,5.43,3.66,6.15-.25,1.86-3.73,.35-3.59,3.2,.08,1.59,1.97,5.16,2.1,6.91,.24,3.18-1.56,2.52-1.3,5.84,.06,.79,2.61,4.75,2.69,5.56,.23,2.37-2.07,3-1.88,5.29,.06,.74,3.62,2.42,3.61,3.55-.02,1.88-3.28,3.04-2.55,4.85,.65,1.62,3.44,3.71,3.64,4.88,.28,1.68-1.71,3.63-1.29,5.39,.79,3.29,4.01,6.05,4.01,6.05,0,0,6.95-6.79,8.84-7.58,1.97-.82,8.33,3.76,8.33,3.76,0,0,1.73-2.67,2.03-4.64Zm32.68-7.88s-4.05-6.67-6.86-11.32c-2.8-4.65-5.8-7.63-5.8-7.63,0,0,6,2.59,11.41,2.37,5.41-.22,10.23-3.24,10.23-3.24,0,0-5.77,4.5-7.24,8.9-1.47,4.39-1.74,10.93-1.74,10.93Zm-89.79,34.43s-2.57,4.36-6.98,12.97c-1.03,2.02,2.67,.84,.96,2.96-1.24,1.54-7.45,4.45-9.08,6.07-1.51,1.5,2.44,1.4,1.11,2.84-4.44,4.83-4.96-.2-10.47,8.44-1.67,2.62-8.54,7.39-6.53,9.14,1.63,1.42,3.25,1.33,1.37,5.16-1.34,2.73-8.89,8.14-10.48,11.53-.99,2.09,3.94,.33,3.04,2.24-1.65,3.54-5.35,5.55-7.17,8.48-2.71,4.36-1.7,12.15-1.7,12.15,0,0,4.62-6.37,7.96-11.5,1.37-2.1,3.31,.9,4.61-1.65,.86-1.69,.9-4.23,1.53-6.68,.6-2.33,2.98-2.14,3.79-3.63,1.21-2.23,.99-6.04,1.43-7.64,1.32-4.71,2.33-3.47,3.68-7.38,.49-1.41-.47-5.92,.74-8.21,1.7-3.24,4.89-2.51,8.51-4.34,1.38-.7,2.83-4.64,4.22-6.03,1.93-1.94,3.53,1.19,4.82-1.33,1.08-2.11,2.12-6.85,3.27-10.2,1.38-4.03,2.24-2.48,2.65-4.67,.36-1.96-1.28-8.72-1.28-8.72Zm53.79,42.54s17.4-15.4,30.81-17.13c13.41-1.73,22.83,10.2,22.83,10.2,0,0-9.22,3.28-17.81,2.69-8.59-.59-6.76-5.88-16.57-5.04-9.81,.85-19.27,9.28-19.27,9.28Zm-30.69-1.48s-4.41,3.72-7.93,13.6c-1.72,4.84,1.71,3.97,.11,7.68-1.66,3.86-9.46,13.25-8.4,18.33,.31,1.49,3.05,1.17,3.81,2.51,1.29,2.27,2.47,7,4.17,8.58,3.98,3.71,3.55-.95,7.91,.93,4.36,1.88,5,4.89,9.54,6.58,3.19,1.19,3.05-1.23,6.37-.39,1.2,.3,1.31,2.7,2.81,3.41,1.93,.91,4.54-.99,5.79-.85,4.26,.47,6.51-1.76,6.51-1.76,0,0-4.15,1.26-10.25-2.19-1.99-1.13-.63-2.61-3.63-3.59-1.78-.58-5.15,2.05-7.46,1.7-3.4-.51-3.91-4.36-3.91-4.36,0,0-6.58-1.02-9.77-2.62-2.31-1.15-2.13-1.71-2.83-4.27-.51-1.86-3.85-3.45-4.26-6.2-.4-2.75,1.39-3.75,2.65-4.8,1.43-1.2,4.1,2.18,4.4,.95,.66-2.73-1.74-7.64-.83-11.3,1.68-6.75-.71-4.53,.57-9.12,1.28-4.59,4.63-12.85,4.63-12.85Zm10.27,69.12s-.48,9.82-3.42,19.6c-2.94,9.79-8.35,19.54-8.35,19.54l7.09-7.83s.6,2.28,1.59,.62c.99-1.66,1.96-5.09,1.96-5.09,0,0,1.03,1.74,1.86,1.21,.82-.54,.38-2.68,.44-5.38,.06-2.71-.29-1.71-.21-5.44,.02-.86,2,1.75,1.96,.12-.04-1.63-2.01-5.33-2.12-6.64-.54-6.17-.79-10.71-.79-10.71Zm48.21,.29s-3.53,6.59-4.31,10.62c-.2,1,3.94-2.68,3.77-1.53-.45,2.93-4.21,8.58-4.94,12.38-.21,1.13,3.34-3.45,3.24-2.23-.3,3.7-3.28,13.17-3.92,17.62-.45,3.17,3.03-1.94,3.16,.27,.17,2.72-1.76,9.75-1.37,12.21,.46,2.88,3.05,1.74,3.85,3.78,2.67,6.78,4.59,12.81,4.59,12.81,0,0-.2-12.06,3.78-22.91,.57-1.56,2.04,4.71,2.67,3.02,.61-1.64,2.19-13.43,2.87-15.07,1.35-3.28,2.44,3.14,3.87-.06,1.43-3.2-.99-6.3,1.83-12.73,2.82-6.43,9.47-12.98,9.47-12.98,0,0-7.4,1.42-14.54,.12-7.14-1.3-14.02-5.32-14.02-5.32Zm55.73-93.64s-2.65,5.97-1.25,12.72c1.4,6.75,.89,6.43,6.22,14.83,5.33,8.4,8.45,12.05,13.8,19.27,5.35,7.22,3.93,4.86,7.6,9.6,.33,.43,.67,.82,1.01,1.24-5.39,.12-12.07,4.73-12.36,6.55-1.67,10.4,5.76,5.46,5.76,8.56,0,1.92-2.28,2.76,.11,4.61,.65,.5,1.27,1.07,1.89,1.62-.57,.61-1.21,1.19-1.95,1.71-6.35,4.48-6.6,3.06-15.34,3.65-8.74,.59-9.44,2.26-20.57-1.89-11.13-4.15-25.2-14.57-25.2-14.57,0,0,10.94,10.5,24.07,16.39,9,4.04,19.72,4.55,25.92,3.49,2.57-.44,5.4-.83,8.12-1.47-.24,.43-.46,.8-.77,1.35-.46,.84-1.54,2.17-2.31,2.88-2.06,1.86-4.13,2.87-6.66,2.3-5.49-1.23-15.25-.97-23.07-1.33-4.01-.19-6.16-1.09-9.76-1.29-6.98-.4-12.62-1.44-14.14-1.71-3.1-.55-5.64-1.33-9.4-1.41-3.77-.08-5.98-1.12-5.82-.31,.11,.55-3.3,.66-.24,1.48,1.99,.54,2.71,2.52,4.93,1.88,.79-.23,2.56-.63,4.43-.34,1.25,.19,1.11,1.44,2.4,1.82,1.3,.38,4.03-.11,5.14,.02,3.86,.47,8.26,1.35,13.84,1.85,2.32,.21,4.04,1.74,6.32,2.08,1.21,.18,4.01-.56,5.3-.61,2.06-.09,1.71,.68,3.44,.74,2.75,.1,.57-.96,1.43-1.04,.86-.07,1.4,.17,1.4,.17,0,0,0,.28-2.33,1.52-1,.53-2.66,1.52-4.05,2.56-.81,.6,2.92,2.56,2.17,3.26-3.59,3.35-5.7,1.6-8.4,5.29-2.7,3.69-2.74,5.63-2.41,9.47,.15,1.79,2.71-2.47,2.78-.13,.03,1.12-1.49,7.65-2.11,10.46-.54,2.42,2.27-3.25,2.31-2.24,.31,7.52-1.74,19.02-1.74,19.02l9.91-30.92,11.7-17.82c1.97-.82,2.92-.1,4.27-.03,.67,.04-1.37,1.47-.81,1.45,1-.02,5.19-1.55,5.19-1.55,0,0,.72,.45,1.39,.31,.8-.16,1.45-.94,1.9-1.05,.75-.17,.66,.85,1.22,.34,.55-.51,.97-2.28,1.48-1.55,.5,.73,1-1.89,1.39-2.22,.55-.46,.82,.18,1.08-.55,.57-1.58,.55-3.5,.38-4.64,2.25-.67,4.38-1.56,6.12-2.93,.48-.38,.93-.83,1.36-1.32,.72,0,1.42-.37,2.08-1.3,3.16-4.46,2.5-6.6,5.29-9.94,.76-.9,.89-3.08,.42-5.37-.02-.29-.03-.59-.09-.89-.21-1.17-.63-1.99-1.23-2.76-.77-1.36-1.82-2.49-3.18-3.12-1.44-1.31-3.13-2.92-5.38-5.71-3.23-4.01-4.21-6.16-6.05-8.37-1.65-1.98-4.14-3.85-7.12-10.01-2.21-4.58-7.11-9.92-8.96-15.17h0c.84-.07,1.7-.17,2.58-.28,2.67-.31,5.27-.54,5.32-1.07,.22-2.34-3.89-7.26-5.08-7.72-.79-.31-3.77-2-5.4-1.1-.54-4.62-.28-8.78-.28-8.78Zm-22.52,28.4s9.2,11.42,16.22,19.18c7.03,7.76,9.32,12.33,11.02,13.41,1.7,1.08-1.44-6.33-8.31-13.9-6.87-7.57-18.94-18.68-18.94-18.68Zm-16.23-50.74s5.27,3.83,10.1,7.55c4.83,3.72,9.23,7.32,9.23,7.32,0,0-1.69-5.85-.98-10.43,.71-4.59,1.6-8.99,1.6-8.99,0,0-2.77,3.91-7.76,5.05-4.99,1.14-12.19-.49-12.19-.49Z"/></g><polyline class="f" points="75.56 5 5 5.07 5 300.38 75.56 300.38"/><polyline class="f" points="228.27 300.38 299.45 300.38 299.45 5.07 230.02 5.07"/><g><path class="g" d="M90.66,303.91v-.79h1.43v-5.44h-1.43v-.79h3.75v.79h-1.43v5.44h1.43v.79h-3.75Z"/><path class="g" d="M96.15,303.91v-7.01h1.13l.73,2.27c.07,.21,.13,.41,.19,.61,.06,.2,.1,.36,.12,.47,.03-.11,.07-.26,.12-.47,.05-.2,.11-.41,.17-.62l.69-2.26h1.13v7.01h-.85v-2.55c0-.28,0-.6,.03-.96,.02-.36,.04-.73,.08-1.1s.07-.73,.1-1.08,.07-.64,.09-.9l-1.13,3.51h-.91l-1.14-3.51c.03,.25,.06,.54,.1,.87,.03,.33,.06,.68,.09,1.05s.05,.74,.07,1.1,.03,.7,.03,1.02v2.55h-.85Z"/><path class="g" d="M101.67,303.91l1.83-7.01h1.16l1.82,7.01h-.87l-.46-1.86h-2.12l-.46,1.86h-.88Zm1.52-2.59h1.77l-.54-2.16c-.1-.41-.18-.75-.24-1.03s-.09-.46-.11-.54c-.01,.08-.05,.26-.11,.54-.06,.28-.14,.62-.24,1.02l-.54,2.17Z"/><path class="g" d="M109.87,304c-.42,0-.79-.08-1.1-.24-.31-.16-.55-.39-.72-.7-.17-.3-.25-.66-.25-1.08v-3.17c0-.42,.08-.78,.25-1.08,.17-.3,.41-.53,.72-.69,.31-.16,.68-.24,1.1-.24s.79,.08,1.1,.25,.54,.4,.71,.7c.17,.3,.25,.66,.25,1.08h-.87c0-.4-.1-.7-.31-.92s-.5-.32-.88-.32-.67,.11-.89,.32c-.21,.21-.32,.52-.32,.91v3.18c0,.4,.11,.71,.32,.92s.51,.33,.89,.33,.67-.11,.88-.33,.31-.53,.31-.92v-.86h-1.42v-.79h2.29v1.65c0,.41-.08,.77-.25,1.07-.17,.3-.4,.54-.71,.7-.31,.16-.67,.25-1.1,.25Z"/><path class="g" d="M113.72,303.91v-.79h1.43v-5.44h-1.43v-.79h3.75v.79h-1.43v5.44h1.43v.79h-3.75Z"/><path class="g" d="M119.34,303.91v-7.01h1.15l2.14,6c-.01-.16-.03-.36-.04-.59-.02-.23-.03-.48-.04-.74,0-.26-.01-.5-.01-.73v-3.94h.84v7.01h-1.15l-2.13-6c.01,.15,.03,.35,.04,.58s.02,.48,.03,.74c0,.26,.01,.51,.01,.75v3.94h-.84Z"/><path class="g" d="M125.21,303.91v-7.01h4.04v.79h-3.18v2.17h2.84v.78h-2.84v2.49h3.18v.79h-4.04Z"/><path class="g" d="M132.89,304c-.24,0-.44-.07-.58-.21-.14-.14-.22-.33-.22-.57,0-.25,.07-.45,.22-.6,.14-.15,.34-.22,.58-.22s.44,.07,.58,.22c.14,.15,.22,.35,.22,.6s-.07,.43-.22,.57-.34,.21-.58,.21Z"/><path class="g" d="M144.46,304c-.42,0-.79-.08-1.1-.24-.31-.16-.55-.39-.72-.7-.17-.3-.25-.66-.25-1.08v-3.17c0-.42,.08-.78,.25-1.08,.17-.3,.41-.53,.72-.69,.31-.16,.68-.24,1.1-.24s.79,.08,1.1,.25,.54,.4,.71,.7c.17,.3,.25,.66,.25,1.08h-.87c0-.4-.1-.7-.31-.92s-.5-.32-.88-.32-.67,.11-.89,.32c-.21,.21-.32,.52-.32,.91v3.18c0,.4,.11,.7,.32,.92s.51,.32,.89,.32,.67-.11,.88-.32,.31-.52,.31-.92h.87c0,.41-.08,.77-.25,1.07-.17,.3-.4,.54-.71,.7-.31,.16-.67,.25-1.1,.25Z"/><path class="g" d="M148.19,303.91v-7.01h2.17c.42,0,.78,.08,1.09,.25,.31,.17,.56,.41,.73,.71,.17,.3,.26,.65,.26,1.06,0,.47-.12,.88-.37,1.22-.25,.34-.58,.57-1,.7l1.47,3.07h-1.02l-1.34-2.98h-1.12v2.98h-.87Zm.87-3.76h1.31c.36,0,.65-.11,.86-.34s.33-.53,.33-.9-.11-.68-.33-.9-.51-.34-.86-.34h-1.31v2.48Z"/><path class="g" d="M154.03,303.91v-7.01h4.04v.79h-3.18v2.17h2.84v.78h-2.84v2.49h3.18v.79h-4.04Z"/><path class="g" d="M159.32,303.91l1.83-7.01h1.16l1.82,7.01h-.87l-.46-1.86h-2.12l-.46,1.86h-.88Zm1.52-2.59h1.77l-.54-2.16c-.1-.41-.18-.75-.24-1.03s-.09-.46-.11-.54c-.01,.08-.05,.26-.11,.54-.06,.28-.14,.62-.24,1.02l-.54,2.17Z"/><path class="g" d="M167.05,303.91v-6.24h-1.92v-.79h4.71v.79h-1.92v6.24h-.86Z"/><path class="g" d="M171.33,303.91v-7.01h4.04v.79h-3.18v2.17h2.84v.78h-2.84v2.49h3.18v.79h-4.04Z"/><path class="g" d="M179.01,304c-.24,0-.44-.07-.58-.21-.14-.14-.22-.33-.22-.57,0-.25,.07-.45,.22-.6,.14-.15,.34-.22,.58-.22s.44,.07,.58,.22c.14,.15,.22,.35,.22,.6s-.07,.43-.22,.57-.34,.21-.58,.21Z"/><path class="g" d="M190.58,304c-.46,0-.86-.08-1.19-.23-.33-.15-.58-.37-.76-.66-.18-.29-.27-.63-.28-1.03h.87c0,.35,.12,.63,.36,.84s.58,.31,1,.31c.4,0,.72-.1,.95-.3,.23-.2,.34-.47,.34-.83,0-.28-.08-.53-.23-.74-.15-.21-.37-.36-.65-.44l-.95-.3c-.48-.15-.85-.39-1.11-.74-.26-.35-.39-.75-.39-1.22,0-.38,.08-.71,.25-.99,.17-.28,.41-.5,.72-.65,.31-.16,.67-.24,1.09-.24,.61,0,1.11,.17,1.48,.51,.37,.34,.56,.8,.57,1.37h-.86c0-.35-.1-.62-.31-.81-.21-.2-.5-.29-.88-.29s-.66,.09-.87,.27c-.21,.18-.31,.43-.31,.75,0,.29,.08,.54,.23,.75,.15,.21,.38,.36,.66,.45l.96,.31c.47,.15,.83,.4,1.08,.75,.26,.35,.38,.77,.38,1.24,0,.38-.09,.72-.27,1.01-.18,.29-.43,.51-.75,.67-.32,.16-.7,.24-1.13,.24Z"/><path class="g" d="M194.32,303.91v-7.01h.87v3h2.25v-3h.86v7.01h-.86v-3.23h-2.25v3.23h-.87Z"/><path class="g" d="M199.67,303.91l1.83-7.01h1.16l1.82,7.01h-.87l-.46-1.86h-2.12l-.46,1.86h-.88Zm1.52-2.59h1.77l-.54-2.16c-.1-.41-.18-.75-.24-1.03s-.09-.46-.11-.54c-.01,.08-.05,.26-.11,.54-.06,.28-.14,.62-.24,1.02l-.54,2.17Z"/><path class="g" d="M205.84,303.91v-7.01h2.17c.42,0,.78,.08,1.09,.25,.31,.17,.56,.41,.73,.71,.17,.3,.26,.65,.26,1.06,0,.47-.12,.88-.37,1.22-.25,.34-.58,.57-1,.7l1.47,3.07h-1.02l-1.34-2.98h-1.12v2.98h-.87Zm.87-3.76h1.31c.36,0,.65-.11,.86-.34s.33-.53,.33-.9-.11-.68-.33-.9-.51-.34-.86-.34h-1.31v2.48Z"/><path class="g" d="M211.68,303.91v-7.01h4.04v.79h-3.18v2.17h2.84v.78h-2.84v2.49h3.18v.79h-4.04Z"/></g></g></g></svg>