<?xml version="1.0" encoding="UTF-8"?><svg xmlns="http://www.w3.org/2000/svg" viewBox="0 0 281.08 281.08"><defs><style>.e{fill:#fff;}.f,.g{fill:#f04f23;}.g{isolation:isolate;opacity:.99;}.g,.h{fill-rule:evenodd;}.h{fill:none;stroke:#f04f23;stroke-miterlimit:10;stroke-width:10px;}</style></defs><g id="a"/><g id="b"><g id="c"><rect class="e" width="281.08" height="281.08"/><g><g id="d"><path class="g" d="M111.63,42.04c-11.94,7.19-22.66,53.09-17.76,62.64,.23,.45,6.36-2.62,6.36-2.62,0,0,5.07,1.59,7.96,.74-2.36-8.33-6.07-23.21-5.66-33.81,.38-9.95,7.89-25.61,12.48-25.16,3.69,.37,9.54,3.14,14.51,8.19,6.38,6.48,11.57,15.44,11.57,15.44l5.71,9.31s-.22-6.22-.54-7.22c-1.98-6.24-22.89-34.59-34.64-27.51Zm102.92,4.53c-11.09,.09-41.62,16.1-49.17,24.28-3.42,3.71-3.28,6.28-3.28,6.28,0,0,7.48-1.41,9.62,.95,3.45,3.8,7.47,7.97,7.47,7.97,0,0-1.91-6.67,3.43-18.26,4.77-10.37,27.85-20.87,32.13-18.75,2.59,1.28-4.83,24.06-7.33,30.92-1.4,3.84-9.19,19.01-9.19,19.01,0,0,3.82-3.1,5.9-5.24,2.27-2.34,20.71-41.01,12.97-46.62-.52-.38-1.39-.55-2.54-.54Zm-31.04,37.31c.1-.8-2.2,1.19-1.97-.05,.24-1.24,2.78-4.41,2.92-4.91,.47-1.71-2.32,.83-1.46-1.05,.86-1.88,4.22-4.75,4.9-6.49,.69-1.74-3.12,.62-2.16-.46,.96-1.08,5.56-3.3,6.01-3.85,.77-.96-2.76,.13-1.4-1.04,1.36-1.17,5.75-2.86,6.86-3.65,.8-.57-2.96-.04-1.68-1,1.28-.96,5.37-2.14,6.8-2.83,.65-.31-1.62-.2-.81-.79,.81-.59,3.21-1.05,4.05-1.58,.84-.53-1.42-.46-.5-.81,.92-.35,2.92-.78,4.18-.57,1.26,.21,1.16,.86,.85,1.4-.31,.54-1.69,1.08-1.73,1.6s1.78-.11,1.59,.47c-.17,.53-3.31,2.71-3.38,3.18-.18,1.2,2.26,.88,1.67,2.63-.33,.98-2.15,2.86-2.55,3.93-.72,1.94,.52,1.85-.23,3.87-.18,.48-2.48,2.49-2.67,2.98-.57,1.43,.75,2.24,.23,3.64-.17,.45-2.69,.86-2.88,1.57-.33,1.18,1.5,2.48,.72,3.48-.7,.9-2.81,1.7-3.14,2.39-.48,1,.42,2.57-.16,3.59-1.08,1.91-3.58,3.05-3.58,3.05,0,0-3.11-5.47-4.15-6.31-1.08-.86-5.87,.85-5.87,.85,0,0-.6-1.97-.44-3.26Zm-49.5,5.74c.14-.88,1.99,1.95,2.11,.55,.13-1.39-1.62-5.55-1.61-6.13,.02-1.97,2.22,1.6,1.88-.68-.34-2.27-3.04-6.36-3.24-8.42-.2-2.06,3.14,1.62,2.44,.17-.7-1.44-4.92-5.22-5.23-5.94-.53-1.26,2.91,.99,1.81-.68-1.1-1.67-5.26-4.81-6.19-5.99-.68-.86,3.17,.86,2.1-.55-1.07-1.41-5.07-3.93-6.39-5.1-.6-.53,1.79,.29,1.11-.59-.68-.88-3.1-2.11-3.84-2.93-.74-.82,1.66-.06,.78-.71-.87-.65-2.88-1.73-4.28-1.89-1.41-.16-1.5,.56-1.34,1.24,.16,.67,1.47,1.67,1.35,2.23-.12,.56-1.86-.67-1.84,.01,.02,.62,2.7,3.91,2.63,4.43-.18,1.34-2.68,.25-2.59,2.3,.06,1.15,1.42,3.71,1.51,4.97,.17,2.29-1.12,1.81-.94,4.2,.04,.57,1.88,3.42,1.94,4,.17,1.7-1.49,2.16-1.36,3.81,.04,.53,2.6,1.74,2.6,2.56-.01,1.36-2.36,2.18-1.83,3.49,.47,1.17,2.48,2.67,2.62,3.51,.2,1.21-1.23,2.61-.93,3.88,.57,2.37,2.88,4.35,2.88,4.35,0,0,5-4.88,6.36-5.45,1.42-.59,6,2.71,6,2.71,0,0,1.24-1.92,1.46-3.34Zm23.52-5.67s-2.92-4.8-4.93-8.15c-2.02-3.35-4.17-5.49-4.17-5.49,0,0,4.32,1.86,8.21,1.71,3.89-.16,7.36-2.33,7.36-2.33,0,0-4.15,3.24-5.21,6.4-1.06,3.16-1.25,7.87-1.25,7.87Zm-64.62,24.78s-1.85,3.14-5.02,9.34c-.74,1.45,1.92,.61,.69,2.13-.89,1.11-5.36,3.2-6.54,4.37-1.08,1.08,1.76,1.01,.8,2.05-3.19,3.48-3.57-.14-7.53,6.07-1.2,1.89-6.14,5.32-4.7,6.58,1.17,1.02,2.34,.96,.98,3.72-.96,1.96-6.39,5.85-7.54,8.29-.71,1.5,2.83,.24,2.19,1.61-1.19,2.55-3.85,3.99-5.16,6.1-1.95,3.13-1.22,8.74-1.22,8.74,0,0,3.32-4.58,5.73-8.27,.98-1.51,2.38,.65,3.32-1.19,.62-1.22,.64-3.04,1.1-4.81,.43-1.68,2.15-1.54,2.73-2.61,.87-1.61,.71-4.35,1.03-5.5,.95-3.39,1.68-2.5,2.64-5.31,.35-1.02-.34-4.26,.53-5.91,1.23-2.33,3.52-1.81,6.12-3.12,1-.5,2.04-3.34,3.03-4.34,1.39-1.4,2.54,.85,3.47-.96,.78-1.52,1.53-4.93,2.36-7.34,1-2.9,1.62-1.78,1.91-3.36,.26-1.41-.92-6.27-.92-6.27Zm38.71,30.61s12.52-11.08,22.17-12.33c9.65-1.25,16.43,7.34,16.43,7.34,0,0-6.63,2.36-12.82,1.94-6.18-.42-4.86-4.23-11.92-3.62-7.06,.61-13.86,6.68-13.86,6.68Zm-22.09-1.07s-3.17,2.68-5.7,9.79c-1.24,3.48,1.23,2.86,.08,5.53-1.2,2.78-6.81,9.54-6.05,13.19,.22,1.07,2.19,.84,2.74,1.81,.93,1.63,1.78,5.04,3,6.18,2.87,2.67,2.56-.68,5.7,.67,3.14,1.35,3.6,3.52,6.86,4.74,2.3,.86,2.19-.88,4.59-.28,.86,.22,.95,1.95,2.02,2.45,1.39,.66,3.27-.71,4.17-.61,3.07,.34,4.69-1.27,4.69-1.27,0,0-2.99,.91-7.38-1.57-1.44-.81-.45-1.88-2.61-2.58-1.28-.42-3.71,1.48-5.37,1.23-2.45-.37-2.82-3.14-2.82-3.14,0,0-4.73-.74-7.03-1.88-1.66-.83-1.53-1.23-2.04-3.07-.37-1.34-2.77-2.48-3.06-4.46-.29-1.98,1-2.7,1.9-3.45,1.03-.86,2.95,1.57,3.17,.68,.48-1.97-1.25-5.5-.6-8.13,1.21-4.86-.51-3.26,.41-6.56,.92-3.3,3.34-9.25,3.34-9.25Zm7.39,49.74s-.34,7.06-2.46,14.11c-2.12,7.04-6.01,14.06-6.01,14.06l5.11-5.63s.43,1.64,1.14,.44c.71-1.2,1.41-3.66,1.41-3.66,0,0,.74,1.26,1.33,.87,.59-.39,.27-1.93,.31-3.87,.04-1.95-.21-1.23-.15-3.91,.01-.62,1.44,1.26,1.41,.09-.03-1.17-1.45-3.84-1.53-4.78-.39-4.44-.57-7.71-.57-7.71Zm34.69,.21s-2.54,4.74-3.1,7.64c-.14,.72,2.84-1.93,2.71-1.1-.33,2.11-3.03,6.17-3.55,8.91-.15,.81,2.4-2.48,2.33-1.61-.22,2.66-2.36,9.48-2.82,12.68-.33,2.28,2.18-1.4,2.28,.19,.12,1.96-1.27,7.02-.98,8.78,.33,2.07,2.19,1.25,2.77,2.72,1.92,4.88,3.3,9.22,3.3,9.22,0,0-.14-8.68,2.72-16.48,.41-1.12,1.47,3.39,1.92,2.17,.44-1.18,1.57-9.66,2.06-10.84,.97-2.36,1.76,2.26,2.78-.04,1.03-2.3-.71-4.53,1.32-9.16,2.03-4.63,6.81-9.34,6.81-9.34,0,0-5.33,1.02-10.46,.09-5.14-.94-10.09-3.83-10.09-3.83Zm40.1-67.39s-1.91,4.3-.9,9.15c1.01,4.86,.64,4.63,4.47,10.67,3.83,6.05,6.08,8.67,9.93,13.87,3.85,5.19,2.83,3.5,5.47,6.91,.24,.31,.48,.59,.73,.89-3.88,.09-8.69,3.41-8.9,4.72-1.2,7.49,4.15,3.93,4.15,6.16,0,1.38-1.64,1.99,.08,3.31,.47,.36,.92,.77,1.36,1.16-.41,.44-.87,.86-1.4,1.23-4.57,3.22-4.75,2.2-11.04,2.63-6.29,.43-6.79,1.62-14.8-1.36-8.01-2.98-18.13-10.49-18.13-10.49,0,0,7.87,7.55,17.32,11.79,6.48,2.91,14.19,3.28,18.65,2.51,1.85-.32,3.88-.59,5.84-1.06-.18,.31-.33,.58-.55,.97-.33,.61-1.11,1.57-1.66,2.07-1.48,1.34-2.97,2.06-4.79,1.66-3.95-.89-10.97-.7-16.61-.96-2.88-.13-4.44-.78-7.03-.93-5.02-.29-9.08-1.04-10.18-1.23-2.23-.4-4.06-.96-6.77-1.02-2.71-.06-4.3-.81-4.19-.22,.08,.4-2.37,.47-.18,1.07,1.43,.39,1.95,1.81,3.55,1.35,.57-.16,1.84-.46,3.19-.25,.9,.14,.8,1.04,1.73,1.31,.93,.27,2.9-.08,3.7,.02,2.78,.34,5.94,.97,9.96,1.33,1.67,.15,2.9,1.25,4.55,1.5,.87,.13,2.89-.4,3.81-.44,1.48-.06,1.23,.49,2.48,.53,1.98,.07,.41-.69,1.03-.75s1.01,.12,1.01,.12c0,0,0,.2-1.67,1.1-.72,.38-1.92,1.09-2.92,1.84-.58,.44,2.1,1.84,1.56,2.35-2.59,2.41-4.1,1.15-6.05,3.81-1.95,2.65-1.97,4.05-1.74,6.81,.11,1.29,1.95-1.78,2-.09,.02,.81-1.07,5.5-1.52,7.52-.39,1.74,1.63-2.34,1.66-1.61,.23,5.41-1.25,13.68-1.25,13.68l7.13-22.25,8.42-12.82c1.42-.59,2.1-.07,3.07-.02,.48,.03-.99,1.06-.58,1.05,.72-.01,3.74-1.11,3.74-1.11,0,0,.52,.32,1,.22,.58-.12,1.05-.68,1.37-.75,.54-.12,.47,.61,.88,.24,.4-.36,.7-1.64,1.07-1.11,.36,.53,.72-1.36,1-1.6,.39-.33,.59,.13,.77-.39,.41-1.14,.39-2.52,.27-3.34,1.62-.48,3.15-1.13,4.4-2.11,.35-.27,.67-.6,.98-.95,.52,0,1.02-.26,1.5-.94,2.27-3.21,1.8-4.75,3.81-7.15,.54-.65,.64-2.22,.3-3.87-.01-.21-.02-.42-.06-.64-.15-.84-.45-1.43-.88-1.98-.55-.98-1.31-1.79-2.29-2.25-1.04-.94-2.25-2.1-3.87-4.11-2.32-2.88-3.03-4.43-4.35-6.03-1.19-1.43-2.98-2.77-5.12-7.2-1.59-3.3-5.12-7.14-6.45-10.91h0c.6-.05,1.23-.13,1.85-.2,1.92-.22,3.79-.39,3.83-.77,.16-1.68-2.8-5.22-3.65-5.56-.57-.22-2.71-1.44-3.89-.79-.39-3.32-.2-6.32-.2-6.32Zm-16.2,20.44s6.62,8.22,11.67,13.8c5.06,5.59,6.71,8.87,7.93,9.65,1.22,.78-1.04-4.56-5.98-10.01-4.94-5.45-13.63-13.45-13.63-13.45Zm-11.68-36.51s3.79,2.76,7.27,5.43c3.48,2.67,6.64,5.27,6.64,5.27,0,0-1.21-4.21-.7-7.51,.51-3.3,1.15-6.47,1.15-6.47,0,0-1.99,2.81-5.58,3.63-3.59,.82-8.78-.35-8.78-.35Z"/></g><polyline class="h" points="85.3 31.85 34.46 31.9 34.46 244.68 85.3 244.68"/><polyline class="h" points="195.34 244.68 246.62 244.68 246.62 31.9 196.59 31.9"/><g><path class="f" d="M96.01,247.15v-.57h1.03v-3.92h-1.03v-.57h2.7v.57h-1.03v3.92h1.03v.57h-2.7Z"/><path class="f" d="M99.97,247.15v-5.05h.82l.53,1.63c.05,.15,.1,.29,.14,.44,.04,.15,.07,.26,.09,.34,.02-.08,.05-.19,.09-.34,.04-.15,.08-.29,.12-.45l.5-1.63h.82v5.05h-.61v-1.83c0-.2,0-.43,.02-.69,.01-.26,.03-.52,.06-.79s.05-.53,.07-.78c.03-.25,.05-.46,.07-.65l-.82,2.53h-.66l-.82-2.53c.02,.18,.05,.39,.07,.63s.04,.49,.06,.75c.02,.27,.03,.53,.05,.79,.01,.26,.02,.51,.02,.73v1.83h-.61Z"/><path class="f" d="M103.94,247.15l1.32-5.05h.84l1.31,5.05h-.63l-.33-1.34h-1.53l-.33,1.34h-.64Zm1.09-1.87h1.27l-.39-1.56c-.07-.3-.13-.54-.17-.74-.04-.2-.07-.33-.08-.39,0,.06-.04,.19-.08,.39-.04,.2-.1,.44-.17,.73l-.39,1.56Z"/><path class="f" d="M109.85,247.22c-.3,0-.57-.06-.79-.17-.22-.12-.4-.28-.52-.5-.12-.22-.18-.48-.18-.78v-2.28c0-.3,.06-.56,.18-.78,.12-.22,.29-.38,.52-.5,.22-.12,.49-.17,.79-.17s.57,.06,.79,.18c.22,.12,.39,.29,.51,.5,.12,.22,.18,.48,.18,.78h-.62c0-.29-.07-.51-.22-.66-.15-.15-.36-.23-.63-.23s-.49,.08-.64,.23c-.16,.15-.23,.37-.23,.66v2.29c0,.29,.08,.51,.23,.66,.15,.16,.37,.24,.64,.24s.48-.08,.63-.24c.15-.16,.22-.38,.22-.66v-.62h-1.02v-.57h1.65v1.19c0,.3-.06,.55-.18,.77s-.29,.39-.51,.51c-.22,.12-.49,.18-.79,.18Z"/><path class="f" d="M112.63,247.15v-.57h1.03v-3.92h-1.03v-.57h2.7v.57h-1.03v3.92h1.03v.57h-2.7Z"/><path class="f" d="M116.68,247.15v-5.05h.83l1.54,4.33c0-.12-.02-.26-.03-.43s-.02-.35-.03-.53c0-.19-.01-.36-.01-.53v-2.84h.6v5.05h-.83l-1.54-4.33c0,.11,.02,.25,.03,.42,0,.17,.02,.35,.02,.53,0,.19,.01,.37,.01,.54v2.84h-.6Z"/><path class="f" d="M120.9,247.15v-5.05h2.91v.57h-2.29v1.56h2.05v.56h-2.05v1.79h2.29v.57h-2.91Z"/><path class="f" d="M126.44,247.22c-.18,0-.32-.05-.42-.15s-.16-.24-.16-.41c0-.18,.05-.32,.16-.43,.1-.11,.24-.16,.42-.16s.32,.05,.42,.16c.1,.11,.16,.25,.16,.43s-.05,.31-.16,.41-.24,.15-.42,.15Z"/><path class="f" d="M134.78,247.22c-.3,0-.57-.06-.79-.17-.22-.12-.4-.28-.52-.5-.12-.22-.18-.48-.18-.78v-2.28c0-.3,.06-.56,.18-.78,.12-.22,.29-.38,.52-.5,.22-.12,.49-.17,.79-.17s.57,.06,.79,.18c.22,.12,.39,.29,.51,.5,.12,.22,.18,.48,.18,.78h-.62c0-.29-.07-.51-.22-.66-.15-.15-.36-.23-.63-.23s-.49,.08-.64,.23c-.16,.15-.23,.37-.23,.66v2.29c0,.29,.08,.51,.23,.66,.15,.15,.37,.23,.64,.23s.48-.08,.63-.23c.15-.15,.22-.38,.22-.66h.62c0,.3-.06,.55-.18,.77s-.29,.39-.51,.51c-.22,.12-.49,.18-.79,.18Z"/><path class="f" d="M137.46,247.15v-5.05h1.56c.3,0,.56,.06,.79,.18,.23,.12,.4,.29,.53,.51,.12,.22,.19,.47,.19,.76,0,.34-.09,.63-.27,.88-.18,.24-.42,.41-.72,.51l1.06,2.22h-.73l-.97-2.15h-.81v2.15h-.62Zm.62-2.71h.94c.26,0,.47-.08,.62-.25,.16-.16,.24-.38,.24-.65s-.08-.49-.24-.65c-.16-.16-.36-.24-.62-.24h-.94v1.79Z"/><path class="f" d="M141.67,247.15v-5.05h2.91v.57h-2.29v1.56h2.05v.56h-2.05v1.79h2.29v.57h-2.91Z"/><path class="f" d="M145.48,247.15l1.32-5.05h.84l1.31,5.05h-.63l-.33-1.34h-1.53l-.33,1.34h-.64Zm1.09-1.87h1.27l-.39-1.56c-.07-.3-.13-.54-.17-.74-.04-.2-.07-.33-.08-.39,0,.06-.04,.19-.08,.39-.04,.2-.1,.44-.17,.73l-.39,1.56Z"/><path class="f" d="M151.05,247.15v-4.49h-1.38v-.57h3.39v.57h-1.38v4.49h-.62Z"/><path class="f" d="M154.13,247.15v-5.05h2.91v.57h-2.29v1.56h2.05v.56h-2.05v1.79h2.29v.57h-2.91Z"/><path class="f" d="M159.67,247.22c-.18,0-.32-.05-.42-.15s-.16-.24-.16-.41c0-.18,.05-.32,.16-.43,.1-.11,.24-.16,.42-.16s.32,.05,.42,.16c.1,.11,.16,.25,.16,.43s-.05,.31-.16,.41-.24,.15-.42,.15Z"/><path class="f" d="M168.01,247.22c-.33,0-.62-.06-.85-.17-.24-.11-.42-.27-.55-.48-.13-.21-.2-.45-.2-.74h.62c0,.25,.09,.45,.26,.6,.17,.15,.41,.22,.72,.22,.29,0,.52-.07,.68-.21,.16-.14,.25-.34,.25-.6,0-.2-.05-.38-.16-.53s-.26-.26-.47-.32l-.69-.21c-.35-.11-.61-.28-.8-.53-.19-.25-.28-.54-.28-.88,0-.27,.06-.51,.18-.71s.29-.36,.52-.47c.22-.11,.48-.17,.78-.17,.44,0,.8,.12,1.07,.37,.27,.25,.4,.58,.41,.99h-.62c0-.25-.08-.44-.23-.58-.15-.14-.36-.21-.63-.21s-.48,.06-.63,.19c-.15,.13-.23,.31-.23,.54,0,.21,.06,.39,.17,.54,.11,.15,.27,.26,.48,.33l.69,.22c.34,.11,.6,.29,.78,.54s.28,.55,.28,.89c0,.28-.06,.52-.19,.73-.13,.21-.31,.37-.54,.48-.23,.12-.5,.17-.81,.17Z"/><path class="f" d="M170.7,247.15v-5.05h.62v2.16h1.62v-2.16h.62v5.05h-.62v-2.33h-1.62v2.33h-.62Z"/><path class="f" d="M174.56,247.15l1.32-5.05h.84l1.31,5.05h-.63l-.33-1.34h-1.53l-.33,1.34h-.64Zm1.09-1.87h1.27l-.39-1.56c-.07-.3-.13-.54-.17-.74-.04-.2-.07-.33-.08-.39,0,.06-.03,.19-.08,.39-.04,.2-.1,.44-.17,.73l-.39,1.56Z"/><path class="f" d="M179,247.15v-5.05h1.56c.3,0,.56,.06,.79,.18,.23,.12,.4,.29,.53,.51,.12,.22,.19,.47,.19,.76,0,.34-.09,.63-.27,.88-.18,.24-.42,.41-.72,.51l1.06,2.22h-.73l-.97-2.15h-.81v2.15h-.62Zm.62-2.71h.94c.26,0,.47-.08,.62-.25,.16-.16,.24-.38,.24-.65s-.08-.49-.24-.65c-.16-.16-.36-.24-.62-.24h-.94v1.79Z"/><path class="f" d="M183.21,247.15v-5.05h2.91v.57h-2.29v1.56h2.05v.56h-2.05v1.79h2.29v.57h-2.91Z"/></g></g></g></g></svg>